<?xml version="1.0" encoding="UTF-8"?>
<svg version="1.1" xmlns="http://www.w3.org/2000/svg" width="260" height="90">
<path d="M0 0 C1.65 0 3.3 0 5 0 C5.495 1.485 5.495 1.485 6 3 C6.99 3 7.98 3 9 3 C9.33 2.01 9.66 1.02 10 0 C11.98 0 13.96 0 16 0 C16 1.65 16 3.3 16 5 C16.99 5 17.98 5 19 5 C19.66 4.01 20.32 3.02 21 2 C22.98 2.66 24.96 3.32 27 4 C26.67 5.65 26.34 7.3 26 9 C26.99 9 27.98 9 29 9 C29.33 8.34 29.66 7.68 30 7 C31.65 7.66 33.3 8.32 35 9 C35 11 35 13 35 15 C36.1446875 14.6596875 36.1446875 14.6596875 37.3125 14.3125 C40 14 40 14 41.875 15 C43.62020832 18.10259257 42.69997967 20.6273707 42 24 C43.65 24 45.3 24 47 24 C47.495 26.97 47.495 26.97 48 30 C47.34 30.33 46.68 30.66 46 31 C46 31.99 46 32.98 46 34 C47.32 34 48.64 34 50 34 C50.495 36.97 50.495 36.97 51 40 C49.35 40.33 47.7 40.66 46 41 C46.495 42.98 46.495 42.98 47 45 C47.66 44.01 48.32 43.02 49 42 C49.66 42 50.32 42 51 42 C52.57950996 50.7591007 51.56335834 58.56952362 46.5625 66.125 C44.00509284 68.99428609 43.51145662 69.3886636 40 70 C39.67 69.01 39.34 68.02 39 67 C38.4225 67.825 37.845 68.65 37.25 69.5 C33.16004049 74.48426553 27.39899347 77.60733106 22 81 C23.58583248 80.23432134 25.16856494 79.46222035 26.75 78.6875 C28.07257812 78.04361328 28.07257812 78.04361328 29.421875 77.38671875 C32.01660815 76.07633928 32.01660815 76.07633928 34.203125 74.33203125 C36 73 36 73 38 73 C38.33 73.66 38.66 74.32 39 75 C40.485 75.99 40.485 75.99 42 77 C38.535 77.99 38.535 77.99 35 79 C35 79.66 35 80.32 35 81 C34.21625 81.28875 33.4325 81.5775 32.625 81.875 C29.90328368 82.84912254 29.90328368 82.84912254 28 85 C23.5330667 86.54624614 19.72039536 87.23026319 15 87 C15 83 15 83 16 82 C11.05 82.495 11.05 82.495 6 83 C8.31 83.33 10.62 83.66 13 84 C12.01 84.495 12.01 84.495 11 85 C11.33 86.65 11.66 88.3 12 90 C9.625 90.125 9.625 90.125 7 90 C6.01 89.01 6.01 89.01 5 88 C2.8625599 87.61405508 2.8625599 87.61405508 0.5 87.5 C-3.77777778 87.22222222 -3.77777778 87.22222222 -6 85 C-6 84.01 -6 83.02 -6 82 C-4.02 82 -2.04 82 0 82 C-3.3 81.01 -6.6 80.02 -10 79 C-9.34 80.32 -8.68 81.64 -8 83 C-9.485 83.495 -9.485 83.495 -11 84 C-11.495 83.505 -11.495 83.505 -12 83 C-12.66 83 -13.32 83 -14 83 C-14 82.34 -14 81.68 -14 81 C-15.65 80.67 -17.3 80.34 -19 80 C-19 79.34 -19 78.68 -19 78 C-19.66 78 -20.32 78 -21 78 C-22 71.25 -22 71.25 -22 69 C-22.66 68.01 -23.32 67.02 -24 66 C-24 67.32 -24 68.64 -24 70 C-27.09727565 69.43685897 -29.32731803 68.94002993 -31.21875 66.296875 C-32.26007429 64.23000406 -33.15604673 62.15451531 -34 60 C-34.4125 59.030625 -34.825 58.06125 -35.25 57.0625 C-36.49436373 51.98134812 -36.66038289 46.98114868 -35 42 C-34.34 42 -33.68 42 -33 42 C-32.67 42.99 -32.34 43.98 -32 45 C-32 44.01 -32 43.02 -32 42 C-32.99 41.67 -33.98 41.34 -35 41 C-34.505 38.03 -34.505 38.03 -34 35 C-32.68 35 -31.36 35 -30 35 C-29.67 33.68 -29.34 32.36 -29 31 C-30.32 30.67 -31.64 30.34 -33 30 C-32.34 28.02 -31.68 26.04 -31 24 C-29.35 24.33 -27.7 24.66 -26 25 C-26.50603992 22.83125748 -26.99983813 21.00032373 -28 19 C-27.01 17.68 -26.02 16.36 -25 15 C-22.525 15.99 -22.525 15.99 -20 17 C-20.2475 16.0925 -20.495 15.185 -20.75 14.25 C-21 11 -21 11 -19.1875 8.625 C-17 7 -17 7 -15 7 C-14.67 7.66 -14.34 8.32 -14 9 C-13.01 8.67 -12.02 8.34 -11 8 C-11.33 6.68 -11.66 5.36 -12 4 C-10.02 3.34 -8.04 2.68 -6 2 C-5.319375 2.7425 -5.319375 2.7425 -4.625 3.5 C-3.12364481 5.22609337 -3.12364481 5.22609337 -1 5 C-0.67 3.35 -0.34 1.7 0 0 Z M-31 48 C-31 49.65 -31 51.3 -31 53 C-30.67 53 -30.34 53 -30 53 C-30 51.35 -30 49.7 -30 48 C-30.33 48 -30.66 48 -31 48 Z M45 52 C46 56 46 56 46 56 Z M-30 53 C-29 56 -29 56 -29 56 Z M-29 57 C-28 59 -28 59 -28 59 Z M43 58 C44 60 44 60 44 60 Z M-28 59 C-28 59.99 -28 60.98 -28 62 C-27.34 61.67 -26.68 61.34 -26 61 C-26.66 60.34 -27.32 59.68 -28 59 Z M40 64 C41 66 41 66 41 66 Z M-15 75 C-15 75.66 -15 76.32 -15 77 C-14.34 76.67 -13.68 76.34 -13 76 C-13.66 75.67 -14.32 75.34 -15 75 Z " fill="#E1E3E5" transform="translate(36,0)"/>
<path d="M0 0 C1.65 0 3.3 0 5 0 C5.495 1.485 5.495 1.485 6 3 C6.99 3 7.98 3 9 3 C9.33 2.01 9.66 1.02 10 0 C11.98 0 13.96 0 16 0 C16 1.65 16 3.3 16 5 C16.99 5 17.98 5 19 5 C19.66 4.01 20.32 3.02 21 2 C22.98 2.66 24.96 3.32 27 4 C26.67 5.65 26.34 7.3 26 9 C26.99 9 27.98 9 29 9 C29.33 8.34 29.66 7.68 30 7 C31.65 7.66 33.3 8.32 35 9 C35 11 35 13 35 15 C36.1446875 14.6596875 36.1446875 14.6596875 37.3125 14.3125 C40 14 40 14 41.875 15 C43.62020832 18.10259257 42.69997967 20.6273707 42 24 C43.65 24 45.3 24 47 24 C47.495 26.97 47.495 26.97 48 30 C47.34 30.33 46.68 30.66 46 31 C46 31.99 46 32.98 46 34 C47.32 34 48.64 34 50 34 C50.495 36.97 50.495 36.97 51 40 C49.35 40.33 47.7 40.66 46 41 C46.495 42.98 46.495 42.98 47 45 C47.66 44.01 48.32 43.02 49 42 C49.66 42 50.32 42 51 42 C52.57950996 50.7591007 51.56335834 58.56952362 46.5625 66.125 C44.00509284 68.99428609 43.51145662 69.3886636 40 70 C39.67 69.01 39.34 68.02 39 67 C38.4225 67.825 37.845 68.65 37.25 69.5 C33.16004049 74.48426553 27.39899347 77.60733106 22 81 C23.58583248 80.23432134 25.16856494 79.46222035 26.75 78.6875 C28.07257812 78.04361328 28.07257812 78.04361328 29.421875 77.38671875 C32.01660815 76.07633928 32.01660815 76.07633928 34.203125 74.33203125 C36 73 36 73 38 73 C38.33 73.66 38.66 74.32 39 75 C40.485 75.99 40.485 75.99 42 77 C38.535 77.99 38.535 77.99 35 79 C35 79.66 35 80.32 35 81 C34.21625 81.28875 33.4325 81.5775 32.625 81.875 C29.90328368 82.84912254 29.90328368 82.84912254 28 85 C23.5330667 86.54624614 19.72039536 87.23026319 15 87 C15 83 15 83 16 82 C11.05 82.495 11.05 82.495 6 83 C8.31 83.33 10.62 83.66 13 84 C12.01 84.495 12.01 84.495 11 85 C11.33 86.65 11.66 88.3 12 90 C9.625 90.125 9.625 90.125 7 90 C6.01 89.01 6.01 89.01 5 88 C2.8625599 87.61405508 2.8625599 87.61405508 0.5 87.5 C-3.77777778 87.22222222 -3.77777778 87.22222222 -6 85 C-6 84.01 -6 83.02 -6 82 C-4.02 82 -2.04 82 0 82 C-3.3 81.01 -6.6 80.02 -10 79 C-9.34 80.32 -8.68 81.64 -8 83 C-9.485 83.495 -9.485 83.495 -11 84 C-11.495 83.505 -11.495 83.505 -12 83 C-12.66 83 -13.32 83 -14 83 C-14 82.34 -14 81.68 -14 81 C-15.65 80.67 -17.3 80.34 -19 80 C-19 79.34 -19 78.68 -19 78 C-19.66 78 -20.32 78 -21 78 C-22 71.25 -22 71.25 -22 69 C-22.66 68.01 -23.32 67.02 -24 66 C-24 67.32 -24 68.64 -24 70 C-27.09727565 69.43685897 -29.32731803 68.94002993 -31.21875 66.296875 C-32.26007429 64.23000406 -33.15604673 62.15451531 -34 60 C-34.4125 59.030625 -34.825 58.06125 -35.25 57.0625 C-36.49436373 51.98134812 -36.66038289 46.98114868 -35 42 C-34.34 42 -33.68 42 -33 42 C-32.67 42.99 -32.34 43.98 -32 45 C-32 44.01 -32 43.02 -32 42 C-32.99 41.67 -33.98 41.34 -35 41 C-34.505 38.03 -34.505 38.03 -34 35 C-32.68 35 -31.36 35 -30 35 C-29.67 33.68 -29.34 32.36 -29 31 C-30.32 30.67 -31.64 30.34 -33 30 C-32.34 28.02 -31.68 26.04 -31 24 C-29.35 24.33 -27.7 24.66 -26 25 C-26.50603992 22.83125748 -26.99983813 21.00032373 -28 19 C-27.01 17.68 -26.02 16.36 -25 15 C-22.525 15.99 -22.525 15.99 -20 17 C-20.2475 16.0925 -20.495 15.185 -20.75 14.25 C-21 11 -21 11 -19.1875 8.625 C-17 7 -17 7 -15 7 C-14.67 7.66 -14.34 8.32 -14 9 C-13.01 8.67 -12.02 8.34 -11 8 C-11.33 6.68 -11.66 5.36 -12 4 C-10.02 3.34 -8.04 2.68 -6 2 C-5.319375 2.7425 -5.319375 2.7425 -4.625 3.5 C-3.12364481 5.22609337 -3.12364481 5.22609337 -1 5 C-0.67 3.35 -0.34 1.7 0 0 Z M-20 19 C-27.14168898 29.04300012 -28.94967582 37.72821501 -28 50 C-26.19986835 60.18463745 -21.00922454 67.30987353 -12.91796875 73.625 C-10.99226899 74.90120339 -9.07016703 75.97738737 -7 77 C-6.39929688 77.31710938 -5.79859375 77.63421875 -5.1796875 77.9609375 C2.66307152 81.53776065 11.77091772 81.04435856 19.8125 78.375 C29.33049578 74.43222559 36.92191636 67.81666792 41.3125 58.4375 C45.37661514 48.42055232 45.06630742 37.96163666 41 28 C38.10215572 22.03447442 34.24922895 17.99364969 29 14 C28.67 14.66 28.34 15.32 28 16 C28.66 16 29.32 16 30 16 C29.67 16.99 29.34 17.98 29 19 C28.34 19 27.68 19 27 19 C26.34 18.01 25.68 17.02 25 16 C25.66 14.68 26.32 13.36 27 12 C21.16949461 8.71371514 16.65698662 7.28895101 10 7 C9.21753906 6.92523437 8.43507812 6.85046875 7.62890625 6.7734375 C-3.01754304 6.12613338 -13.07474248 10.99267099 -20 19 Z M-31 48 C-31 49.65 -31 51.3 -31 53 C-30.67 53 -30.34 53 -30 53 C-30 51.35 -30 49.7 -30 48 C-30.33 48 -30.66 48 -31 48 Z M45 52 C46 56 46 56 46 56 Z M-30 53 C-29 56 -29 56 -29 56 Z M-29 57 C-28 59 -28 59 -28 59 Z M43 58 C44 60 44 60 44 60 Z M-28 59 C-28 59.99 -28 60.98 -28 62 C-27.34 61.67 -26.68 61.34 -26 61 C-26.66 60.34 -27.32 59.68 -28 59 Z M40 64 C41 66 41 66 41 66 Z M-15 75 C-15 75.66 -15 76.32 -15 77 C-14.34 76.67 -13.68 76.34 -13 76 C-13.66 75.67 -14.32 75.34 -15 75 Z " fill="#B8622E" transform="translate(36,0)"/>
<path d="M0 0 C4.94151304 2.40016348 7.04331244 5.52273027 10 10 C8.02 10.99 8.02 10.99 6 12 C6 11.01 6 10.02 6 9 C3.5609294 6.79857668 3.5609294 6.79857668 1 5 C1.28617188 5.56203125 1.57234375 6.1240625 1.8671875 6.703125 C8.87611922 20.91433828 8.87611922 20.91433828 6.375 29.02734375 C3.95824161 34.64846482 -0.04996499 38.49330169 -5 42 C-10.92782393 43.97594131 -17.78305695 44.1864236 -23.6796875 42.01171875 C-29.6696524 38.43185757 -32.96600137 33.63005322 -35 27 C-36.00209092 21.0769269 -35.32268849 16.0524224 -32.3359375 10.8203125 C-29.02119822 6.30373792 -24.52592434 2.31569627 -19 1 C-13.80003197 0.56190746 -9.79462356 0.80817209 -5 3 C-3.68 3 -2.36 3 -1 3 C-0.67 2.01 -0.34 1.02 0 0 Z " fill="#C97F42" transform="translate(58,21)"/>
<path d="M0 0 C8.91 0 17.82 0 27 0 C27 9.24 27 18.48 27 28 C18.09 28 9.18 28 0 28 C0 18.76 0 9.52 0 0 Z " fill="#076334" transform="translate(91,62)"/>
<path d="M0 0 C8.91 0 17.82 0 27 0 C27 8.91 27 17.82 27 27 C18.09 27 9.18 27 0 27 C0 18.09 0 9.18 0 0 Z " fill="#106DB4" transform="translate(91,31)"/>
<path d="M0 0 C8.91 0 17.82 0 27 0 C27 8.91 27 17.82 27 27 C18.09 27 9.18 27 0 27 C0 18.09 0 9.18 0 0 Z " fill="#BC602D" transform="translate(91,0)"/>
<path d="M0 0 C0.99 0.66 1.98 1.32 3 2 C3 2.66 3 3.32 3 4 C3.99 4.33 4.98 4.66 6 5 C5.67 5.99 5.34 6.98 5 8 C6.65 7.34 8.3 6.68 10 6 C13.2933751 13.41009397 13.12009277 21.85019671 10.3125 29.375 C8.43685395 33.54982509 6.09209093 36.65023482 3 40 C3 40.33 3 40.66 3 41 C1.86280581 44.41158256 0.95657056 45.11854601 -2 47 C-2.66 47 -3.32 47 -4 47 C-4.495 47.99 -4.495 47.99 -5 49 C-5.33 48.34 -5.66 47.68 -6 47 C-8.3140622 46.26924352 -10.64828869 45.59861742 -13 45 C-12.01 44.505 -12.01 44.505 -11 44 C-11 43.01 -11 42.02 -11 41 C-13.31 41 -15.62 41 -18 41 C-18.33 42.32 -18.66 43.64 -19 45 C-24.11476819 45.63934602 -27.67254378 43.40533547 -32 41 C-32 40.34 -32 39.68 -32 39 C-32.598125 38.7525 -33.19625 38.505 -33.8125 38.25 C-36.35858793 36.79509261 -37.51734865 35.52050729 -39 33 C-39 31.68 -39 30.36 -39 29 C-39.66 28.67 -40.32 28.34 -41 28 C-43.10664798 21.68005605 -43.11103858 14.12722398 -40.8828125 7.85546875 C-39.68468364 5.48967193 -38.43714349 3.22757241 -37 1 C-36.34 1.66 -35.68 2.32 -35 3 C-35.33 3.66 -35.66 4.32 -36 5 C-34.68 5 -33.36 5 -32 5 C-32.309375 5.763125 -32.61875 6.52625 -32.9375 7.3125 C-35.4040186 13.55134117 -36.17991818 19.18456365 -34.1640625 25.703125 C-31.91247935 30.75029796 -29.38834919 34.58491248 -24.44140625 37.22265625 C-18.76596324 39.0297173 -12.47623666 39.09743627 -6.78515625 37.30078125 C-1.74515652 34.68703959 1.60874652 30.5175063 4.3125 25.625 C6.74230332 16.34756913 3.15769284 9.16555891 -1 1 C-0.67 0.67 -0.34 0.34 0 0 Z " fill="#FDFAF5" transform="translate(59,25)"/>
<path d="M0 0 C2.6875 -0.5 2.6875 -0.5 6 0 C8.08132026 2.45240837 9.55490096 5.1353789 11 8 C11.33 6.68 11.66 5.36 12 4 C11.34 4 10.68 4 10 4 C10.33 2.68 10.66 1.36 11 0 C19.58 0 28.16 0 37 0 C37 2.64 37 5.28 37 8 C37.495 8.99 37.495 8.99 38 10 C38.09087891 9.04287109 38.09087891 9.04287109 38.18359375 8.06640625 C38.26738281 7.24011719 38.35117188 6.41382812 38.4375 5.5625 C38.51871094 4.73878906 38.59992188 3.91507812 38.68359375 3.06640625 C39 1 39 1 40 0 C42.33297433 -0.04092937 44.66705225 -0.04241723 47 0 C46.28298649 4.26948952 44.96429029 8.18063511 43.5 12.25 C42.83484375 14.11398438 42.83484375 14.11398438 42.15625 16.015625 C41 19 41 19 40 20 C38.33382885 20.04063832 36.66611905 20.042721 35 20 C34.16280617 17.70967689 33.3301071 15.41789043 32.5 13.125 C32.26152344 12.47402344 32.02304688 11.82304688 31.77734375 11.15234375 C30 6.2265625 30 6.2265625 30 4 C28.68 4 27.36 4 26 4 C26 7.96 26 11.92 26 16 C26.66 16 27.32 16 28 16 C28 17.32 28 18.64 28 20 C25.03 20 22.06 20 19 20 C19 18.68 19 17.36 19 16 C19.66 16 20.32 16 21 16 C21 12.04 21 8.08 21 4 C19.68 4 18.36 4 17 4 C17 9.28 17 14.56 17 20 C15.02 20 13.04 20 11 20 C9.68 17.69 8.36 15.38 7 13 C6.67 13.99 6.34 14.98 6 16 C6.66 16 7.32 16 8 16 C8 17.32 8 18.64 8 20 C5.03 20 2.06 20 -1 20 C-1 18.68 -1 17.36 -1 16 C-0.34 16 0.32 16 1 16 C1 12.04 1 8.08 1 4 C0.34 4 -0.32 4 -1 4 C-0.67 2.68 -0.34 1.36 0 0 Z " fill="#046132" transform="translate(122,66)"/>
<path d="M0 0 C0.69867188 -0.00128906 1.39734375 -0.00257813 2.1171875 -0.00390625 C8.08003673 0.11711099 12.97651296 1.53543006 18.25 4.375 C18.25 6.375 18.25 8.375 18.25 10.375 C18.745 11.365 18.745 11.365 19.25 12.375 C20.24 12.045 21.23 11.715 22.25 11.375 C22.25 10.715 22.25 10.055 22.25 9.375 C21.59 9.045 20.93 8.715 20.25 8.375 C23.78364173 8.375 24.17189321 8.81764344 26.625 11.1875 C31.46411806 16.24237491 35.10572003 22.63683724 35.37890625 29.71484375 C35.33636719 30.59269531 35.29382813 31.47054687 35.25 32.375 C34.651875 32.4575 34.05375 32.54 33.4375 32.625 C30.69296171 33.33693694 30.69296171 33.33693694 28.25 37.375 C27.26 30.94 27.26 30.94 26.25 24.375 C25.26 24.375 24.27 24.375 23.25 24.375 C21.71484375 22.66015625 21.71484375 22.66015625 20.1875 20.4375 C18.18041865 17.38221843 18.18041865 17.38221843 15.25 15.375 C14.59 16.365 13.93 17.355 13.25 18.375 C11.9815625 18.1584375 11.9815625 18.1584375 10.6875 17.9375 C9.553125 17.751875 8.41875 17.56625 7.25 17.375 C5.579375 17.065625 5.579375 17.065625 3.875 16.75 C-5.08644064 15.82295442 -9.7147294 18.049691 -16.75 23.375 C-16.75 22.715 -16.75 22.055 -16.75 21.375 C-17.41 21.045 -18.07 20.715 -18.75 20.375 C-17.96625 20.1275 -17.1825 19.88 -16.375 19.625 C-13.42682892 18.22110901 -12.8475223 17.36824263 -11.75 14.375 C-12.513125 15.055625 -13.27625 15.73625 -14.0625 16.4375 C-14.949375 17.076875 -15.83625 17.71625 -16.75 18.375 C-17.74 18.045 -18.73 17.715 -19.75 17.375 C-18.71909707 16.40509724 -17.67459988 15.44963799 -16.625 14.5 C-15.75488281 13.69949219 -15.75488281 13.69949219 -14.8671875 12.8828125 C-9.89227315 9.33979231 -4.79933598 9.10074347 1.125 9.25 C2.15753906 9.26353516 2.15753906 9.26353516 3.2109375 9.27734375 C4.89077838 9.30067487 6.57043746 9.33653674 8.25 9.375 C4.62 8.715 0.99 8.055 -2.75 7.375 C-2.42 6.055 -2.09 4.735 -1.75 3.375 C-3.07 3.045 -4.39 2.715 -5.75 2.375 C-5.75 3.035 -5.75 3.695 -5.75 4.375 C-9.834979 4.91966387 -13.6225485 5.375 -17.75 5.375 C-12.43767508 0.87995584 -6.80198789 -0.01303063 0 0 Z " fill="#F1F7F9" transform="translate(43.75,6.625)"/>
<path d="M0 0 C2.12472576 -0.05386629 4.24983652 -0.09273071 6.375 -0.125 C7.55835938 -0.14820313 8.74171875 -0.17140625 9.9609375 -0.1953125 C13 0 13 0 15 2 C15.33870968 8.32258065 15.33870968 8.32258065 14 11 C14.89163577 13.11683841 14.89163577 13.11683841 16 15 C16.66 15 17.32 15 18 15 C18.33 11.04 18.66 7.08 19 3 C18.34 3 17.68 3 17 3 C17 2.01 17 1.02 17 0 C19.97 0 22.94 0 26 0 C26 0.99 26 1.98 26 3 C25.34 3 24.68 3 24 3 C24 6.96 24 10.92 24 15 C24.99 15 25.98 15 27 15 C27 14.01 27 13.02 27 12 C28.32 12 29.64 12 31 12 C31 12.99 31 13.98 31 15 C31.66 15 32.32 15 33 15 C33.0825 14.195625 33.165 13.39125 33.25 12.5625 C34.20196675 8.04065795 36.01580179 4.15297299 38 0 C39.65 0 41.3 0 43 0 C43.83986084 1.93467942 44.67168027 3.87285129 45.5 5.8125 C45.9640625 6.89144531 46.428125 7.97039063 46.90625 9.08203125 C48 12 48 12 48 15 C48.66 15 49.32 15 50 15 C50 16.32 50 17.64 50 19 C47.03 19 44.06 19 41 19 C41.33 17.68 41.66 16.36 42 15 C40.68 14.67 39.36 14.34 38 14 C38.495 16.475 38.495 16.475 39 19 C29.76 19 20.52 19 11 19 C10.01 17.02 9.02 15.04 8 13 C8.33 14.98 8.66 16.96 9 19 C6.03 19 3.06 19 0 19 C0.66 13.72 1.32 8.44 2 3 C1.34 3 0.68 3 0 3 C0 2.01 0 1.02 0 0 Z M7 4 C7 5.32 7 6.64 7 8 C7.99 7.67 8.98 7.34 10 7 C10 6.01 10 5.02 10 4 C9.01 4 8.02 4 7 4 Z M40 7 C39.67 7.99 39.34 8.98 39 10 C39.66 10 40.32 10 41 10 C40.67 9.01 40.34 8.02 40 7 Z " fill="#0564AD" transform="translate(131,35)"/>
<path d="M0 0 C10.56 0 21.12 0 32 0 C32 1.65 32 3.3 32 5 C32.495 5.495 32.495 5.495 33 6 C33.33 4.02 33.66 2.04 34 0 C36.31 0 38.62 0 41 0 C40.59839374 3.31325168 39.68523936 5.72934397 38 8.5625 C36.44160643 11.24098894 35.47799966 13.01250213 35 16 C35.66 16 36.32 16 37 16 C37 17.32 37 18.64 37 20 C34.03 20 31.06 20 28 20 C28 18.68 28 17.36 28 16 C28.66 16 29.32 16 30 16 C29.71125 15.30132812 29.4225 14.60265625 29.125 13.8828125 C28.75375 12.97273438 28.3825 12.06265625 28 11.125 C27.62875 10.22007813 27.2575 9.31515625 26.875 8.3828125 C26 6 26 6 26 4 C25.34 4 24.68 4 24 4 C24 4.99 24 5.98 24 7 C23.01 7 22.02 7 21 7 C20.67 6.34 20.34 5.68 20 5 C19.67 8.63 19.34 12.26 19 16 C19.66 16 20.32 16 21 16 C21 17.32 21 18.64 21 20 C18.03 20 15.06 20 12 20 C12 18.68 12 17.36 12 16 C12.66 16 13.32 16 14 16 C14 12.04 14 8.08 14 4 C13.34 4 12.68 4 12 4 C12 4.99 12 5.98 12 7 C10.68 7 9.36 7 8 7 C8 6.01 8 5.02 8 4 C7.34 4 6.68 4 6 4 C6 7.96 6 11.92 6 16 C6.66 16 7.32 16 8 16 C8 17.32 8 18.64 8 20 C5.36 20 2.72 20 0 20 C0 13.4 0 6.8 0 0 Z " fill="#046133" transform="translate(219,66)"/>
<path d="M0 0 C1.7492214 -0.08142927 3.49954542 -0.13938541 5.25 -0.1875 C6.22453125 -0.22230469 7.1990625 -0.25710937 8.203125 -0.29296875 C11.42993683 0.04503528 12.7521495 0.68339172 15 3 C15.52238806 8.95522388 15.52238806 8.95522388 14 12 C14.39938767 14.09821215 14.39938767 14.09821215 15 16 C16.32 16 17.64 16 19 16 C19.16435547 15.14728516 19.16435547 15.14728516 19.33203125 14.27734375 C20.37938166 9.17683242 21.79271753 4.715558 24 0 C25.65 0 27.3 0 29 0 C29.25394531 0.65226563 29.50789063 1.30453125 29.76953125 1.9765625 C31.30240912 5.86903888 32.82240808 9.6575013 34.75 13.375 C36 16 36 16 36 20 C33.03 20 30.06 20 27 20 C27 18.68 27 17.36 27 16 C26.34 16 25.68 16 25 16 C25 17.32 25 18.64 25 20 C20.38 20 15.76 20 11 20 C10.67 19.34 10.34 18.68 10 18 C9.34 18.66 8.68 19.32 8 20 C5.31160615 20.26991906 2.70858064 20.08737357 0 20 C0 18.68 0 17.36 0 16 C0.66 16 1.32 16 2 16 C2 12.04 2 8.08 2 4 C1.34 4 0.68 4 0 4 C0 2.68 0 1.36 0 0 Z M7 4 C7 5.65 7 7.3 7 9 C7.99 8.67 8.98 8.34 10 8 C9.67 6.68 9.34 5.36 9 4 C8.34 4 7.68 4 7 4 Z M26 8 C25.67 8.99 25.34 9.98 25 11 C25.66 11 26.32 11 27 11 C26.67 10.01 26.34 9.02 26 8 Z M7 12 C7 13.32 7 14.64 7 16 C7.66 16 8.32 16 9 16 C8.67 14.68 8.34 13.36 8 12 C7.67 12 7.34 12 7 12 Z " fill="#BD5E28" transform="translate(141,3)"/>
<path d="M0 0 C6.77839196 5.48040201 6.77839196 5.48040201 7.4375 10 C7.42759593 14.70443373 4.83198459 18.05489366 2.3125 21.86328125 C0.82553268 23.8660898 0.82553268 23.8660898 1 26 C1.66 26.495 2.32 26.99 3 27.5 C3.66 27.995 4.32 28.49 5 29 C5 29.66 5 30.32 5 31 C3.02 31 1.04 31 -1 31 C-0.67 29.68 -0.34 28.36 0 27 C-0.55171875 27.32742187 -1.1034375 27.65484375 -1.671875 27.9921875 C-4.38780923 29.16787715 -6.30551759 29.20248638 -9.25 29.125 C-10.14203125 29.10695313 -11.0340625 29.08890625 -11.953125 29.0703125 C-12.62859375 29.04710938 -13.3040625 29.02390625 -14 29 C-14.73651713 27.05827303 -15.47091798 25.11570019 -16.19140625 23.16796875 C-16.87594898 21.33260056 -17.59092176 19.50862603 -18.3125 17.6875 C-18.539375 16.800625 -18.76625 15.91375 -19 15 C-17 12 -17 12 -14.625 11.25 C-12.07496 11.00713905 -10.40864929 11.1971169 -8 12 C-8 10.68 -8 9.36 -8 8 C-7.34 8 -6.68 8 -6 8 C-5.7525 7.4225 -5.505 6.845 -5.25 6.25 C-3.83316683 3.6997003 -2.12372463 1.98214299 0 0 Z " fill="#B67E4C" transform="translate(44,24)"/>
<path d="M0 0 C1.53125 1.0703125 1.53125 1.0703125 2.53125 3.0703125 C1.21125 3.0703125 -0.10875 3.0703125 -1.46875 3.0703125 C-1.46875 2.4103125 -1.46875 1.7503125 -1.46875 1.0703125 C-2.45875 1.0703125 -3.44875 1.0703125 -4.46875 1.0703125 C-4.46875 1.7303125 -4.46875 2.3903125 -4.46875 3.0703125 C-3.80875 3.4003125 -3.14875 3.7303125 -2.46875 4.0703125 C-1.8359375 6.35546875 -1.8359375 6.35546875 -1.34375 9.1328125 C-1.17617188 10.05191406 -1.00859375 10.97101562 -0.8359375 11.91796875 C-0.71476562 12.62824219 -0.59359375 13.33851562 -0.46875 14.0703125 C0.85125 14.0703125 2.17125 14.0703125 3.53125 14.0703125 C4.19125 15.3903125 4.85125 16.7103125 5.53125 18.0703125 C6.19125 18.0703125 6.85125 18.0703125 7.53125 18.0703125 C7.53125 19.7203125 7.53125 21.3703125 7.53125 23.0703125 C6.87125 23.0703125 6.21125 23.0703125 5.53125 23.0703125 C5.53125 22.4103125 5.53125 21.7503125 5.53125 21.0703125 C4.54125 21.5653125 4.54125 21.5653125 3.53125 22.0703125 C1.23315464 22.37901188 -1.06595129 22.57914898 -3.375 22.7890625 C-5.52318933 22.9624675 -5.52318933 22.9624675 -7.46875 24.0703125 C-5.48875 25.0603125 -3.50875 26.0503125 -1.46875 27.0703125 C-2.45875 27.4003125 -3.44875 27.7303125 -4.46875 28.0703125 C-4.46875 29.3903125 -4.46875 30.7103125 -4.46875 32.0703125 C-5.08363281 32.10769531 -5.69851562 32.14507812 -6.33203125 32.18359375 C-7.54439453 32.28220703 -7.54439453 32.28220703 -8.78125 32.3828125 C-9.58175781 32.44082031 -10.38226563 32.49882813 -11.20703125 32.55859375 C-13.83147334 33.15237944 -14.77695672 34.02811544 -16.46875 36.0703125 C-16.46875 34.7503125 -16.46875 33.4303125 -16.46875 32.0703125 C-13.37986478 30.01105569 -12.75939073 29.8312751 -9.28125 29.9453125 C-8.023125 29.9865625 -6.765 30.0278125 -5.46875 30.0703125 C-5.46875 29.4103125 -5.46875 28.7503125 -5.46875 28.0703125 C-6.45875 27.7403125 -7.44875 27.4103125 -8.46875 27.0703125 C-9.8359375 25.30859375 -9.8359375 25.30859375 -10.46875 23.0703125 C-9.3515625 20.73828125 -9.3515625 20.73828125 -7.59375 18.2578125 C-4.85363247 13.96811127 -3.36909129 11.26869912 -4.46875 6.0703125 C-5.95502518 3.76684135 -7.53566709 2.05172249 -9.46875 0.0703125 C-10.438125 0.8540625 -11.4075 1.6378125 -12.40625 2.4453125 C-13.22416016 3.10660156 -13.22416016 3.10660156 -14.05859375 3.78125 C-15.60141437 5.0369516 -15.60141437 5.0369516 -16.46875 7.0703125 C-17.12875 7.0703125 -17.78875 7.0703125 -18.46875 7.0703125 C-18.46875 8.3903125 -18.46875 9.7103125 -18.46875 11.0703125 C-22.92375 11.5653125 -22.92375 11.5653125 -27.46875 12.0703125 C-28.85636362 15.07646081 -28.85636362 15.07646081 -27.15625 17.8203125 C-26.599375 18.8928125 -26.0425 19.9653125 -25.46875 21.0703125 C-25.159375 22.3078125 -24.85 23.5453125 -24.53125 24.8203125 C-23.80790156 28.15742775 -23.80790156 28.15742775 -21.34375 29.5078125 C-20.415625 29.78625 -20.415625 29.78625 -19.46875 30.0703125 C-19.46875 31.7203125 -19.46875 33.3703125 -19.46875 35.0703125 C-22.82891893 33.95025619 -24.15939913 32.69819453 -26.46875 30.0703125 C-26.46875 29.4103125 -26.46875 28.7503125 -26.46875 28.0703125 C-27.45875 28.0703125 -28.44875 28.0703125 -29.46875 28.0703125 C-32.30539155 22.7516096 -32.50495248 16.5884371 -30.81640625 10.85546875 C-28.11872708 4.82331918 -23.74231154 0.96553234 -18.09375 -2.3046875 C-11.32348454 -3.91665547 -6.12575677 -3.28165541 0 0 Z " fill="#D27B37" transform="translate(54.46875,24.9296875)"/>
<path d="M0 0 C1.03229131 2.00147311 1.99356193 3.98376753 2.82421875 6.078125 C6.46424062 15.23582709 12.23709626 21.5166539 21 26 C21.60328125 26.3196875 22.2065625 26.639375 22.828125 26.96875 C29.7392652 30.10489765 37.88368416 29.8212601 45.2109375 28.359375 C48 28 48 28 51 30 C54.48318801 29.66314848 56.81691585 27.92382039 59.625 25.9375 C63.78588235 23 63.78588235 23 66 23 C66.495 23.99 66.495 23.99 67 25 C67.99 25.66 68.98 26.32 70 27 C67.69 27.66 65.38 28.32 63 29 C63 29.66 63 30.32 63 31 C62.21625 31.28875 61.4325 31.5775 60.625 31.875 C57.90328368 32.84912254 57.90328368 32.84912254 56 35 C51.5330667 36.54624614 47.72039536 37.23026319 43 37 C43 33 43 33 44 32 C39.05 32.495 39.05 32.495 34 33 C36.31 33.33 38.62 33.66 41 34 C40.01 34.495 40.01 34.495 39 35 C39.495 37.475 39.495 37.475 40 40 C37.625 40.125 37.625 40.125 35 40 C34.34 39.34 33.68 38.68 33 38 C30.8625599 37.61405508 30.8625599 37.61405508 28.5 37.5 C24.22222222 37.22222222 24.22222222 37.22222222 22 35 C22 34.01 22 33.02 22 32 C23.98 32 25.96 32 28 32 C24.7 31.01 21.4 30.02 18 29 C18.66 30.32 19.32 31.64 20 33 C18.515 33.495 18.515 33.495 17 34 C16.505 33.505 16.505 33.505 16 33 C15.34 33 14.68 33 14 33 C14 32.34 14 31.68 14 31 C12.35 30.67 10.7 30.34 9 30 C9 29.34 9 28.68 9 28 C8.34 28 7.68 28 7 28 C6 21.25 6 21.25 6 19 C5.05623605 17.39531267 4.07039548 15.81520239 3.0625 14.25 C0.75528252 10.4790054 -0.88969862 7.52235663 -1 3 C-0.67 2.01 -0.34 1.02 0 0 Z M13 25 C13 25.66 13 26.32 13 27 C13.66 26.67 14.32 26.34 15 26 C14.34 25.67 13.68 25.34 13 25 Z " fill="#B16E48" transform="translate(8,50)"/>
<path d="M0 0 C2.64 0 5.28 0 8 0 C8 1.32 8 2.64 8 4 C7.34 4 6.68 4 6 4 C6 7.96 6 11.92 6 16 C6.99 15.67 7.98 15.34 9 15 C9.33 14.34 9.66 13.68 10 13 C10.99 13 11.98 13 13 13 C13 13.99 13 14.98 13 16 C13.66 16 14.32 16 15 16 C15.19335938 15.34773438 15.38671875 14.69546875 15.5859375 14.0234375 C16.98640448 9.3228602 18.41208726 4.64159109 20 0 C21.98 0 23.96 0 26 0 C26.33773437 1.07121094 26.67546875 2.14242188 27.0234375 3.24609375 C27.47356249 4.64335675 27.92410496 6.04048531 28.375 7.4375 C28.59671875 8.14455078 28.8184375 8.85160156 29.046875 9.58007812 C29.64102606 11.4062189 30.31549619 13.20577032 31 15 C31.66 15.33 32.32 15.66 33 16 C33 17.32 33 18.64 33 20 C30.03 20 27.06 20 24 20 C24 18.68 24 17.36 24 16 C23.34 16 22.68 16 22 16 C22 17.32 22 18.64 22 20 C14.74 20 7.48 20 0 20 C0 13.4 0 6.8 0 0 Z M22 8 C22 8.99 22 9.98 22 11 C22.66 10.67 23.32 10.34 24 10 C23.34 9.34 22.68 8.68 22 8 Z " fill="#BB5E29" transform="translate(178,3)"/>
<path d="M0 0 C5.94 0 11.88 0 18 0 C18 8.91 18 17.82 18 27 C9.09 27 0.18 27 -9 27 C-9 26.67 -9 26.34 -9 26 C-5.04 25.505 -5.04 25.505 -1 25 C-1.66 24.34 -2.32 23.68 -3 23 C-2.31292969 22.95101562 -1.62585938 22.90203125 -0.91796875 22.8515625 C-0.01691406 22.77679688 0.88414063 22.70203125 1.8125 22.625 C2.70582031 22.55539063 3.59914063 22.48578125 4.51953125 22.4140625 C7.24398499 22.13354964 7.24398499 22.13354964 10 20 C10 18.68 10 17.36 10 16 C9.34 15.67 8.68 15.34 8 15 C7.67 16.32 7.34 17.64 7 19 C5.35 19 3.7 19 2 19 C2 17.35 2 15.7 2 14 C3.98 14 5.96 14 8 14 C8 13.34 8 12.68 8 12 C8.66 11.67 9.32 11.34 10 11 C10 9.35 10 7.7 10 6 C7.29816945 4.64908472 4.88191794 4.66141942 1.875 4.4375 C0.23144531 4.31181641 0.23144531 4.31181641 -1.4453125 4.18359375 C-2.28835937 4.12300781 -3.13140625 4.06242187 -4 4 C-4 3.34 -4 2.68 -4 2 C-2.68 2 -1.36 2 0 2 C0 1.34 0 0.68 0 0 Z " fill="#0965AA" transform="translate(100,31)"/>
<path d="M0 0 C1.65 0 3.3 0 5 0 C4.67 1.32 4.34 2.64 4 4 C9.94 5.485 9.94 5.485 16 7 C12.53208671 8.1559711 10.02145512 7.95947041 6.375 7.8125 C-0.64001713 7.7544647 -6.49842289 8.70300942 -11.73828125 13.63671875 C-12.36283203 14.31154297 -12.36283203 14.31154297 -13 15 C-12.401875 14.690625 -11.80375 14.38125 -11.1875 14.0625 C-9 13 -9 13 -6 12 C-6.3125 13.875 -6.3125 13.875 -7 16 C-7.99 16.66 -8.98 17.32 -10 18 C-10.33 18.33 -10.66 18.66 -11 19 C-11 19.66 -11 20.32 -11 21 C-12.32 21 -13.64 21 -15 21 C-15.33 20.01 -15.66 19.02 -16 18 C-17.98 22.455 -17.98 22.455 -20 27 C-21 23 -21 23 -20 20 C-20.99 20 -21.98 20 -23 20 C-23.33 20.66 -23.66 21.32 -24 22 C-23.34 22.33 -22.68 22.66 -22 23 C-22.66 23 -23.32 23 -24 23 C-24.33 23.99 -24.66 24.98 -25 26 C-26.32 25.67 -27.64 25.34 -29 25 C-26.81002729 16.1775385 -21.96776421 7.82259413 -14 3 C-11.4375 2.875 -11.4375 2.875 -9 3 C-8.34 2.649375 -7.68 2.29875 -7 1.9375 C-4.34415882 0.69257445 -2.76432655 1.23213151 0 2 C0 1.34 0 0.68 0 0 Z " fill="#E3D4D0" transform="translate(38,9)"/>
<path d="M0 0 C0.99 0 1.98 0 3 0 C3 0.99 3 1.98 3 3 C4.97536745 2.65213292 4.97536745 2.65213292 7 2 C7.33 1.34 7.66 0.68 8 0 C8 0.99 8 1.98 8 3 C7.01 3.495 7.01 3.495 6 4 C6 4.99 6 5.98 6 7 C7.32 7 8.64 7 10 7 C10.33 8.98 10.66 10.96 11 13 C9.35 13.33 7.7 13.66 6 14 C6.33 15.32 6.66 16.64 7 18 C7.66 17.01 8.32 16.02 9 15 C9.66 15 10.32 15 11 15 C12.57950996 23.7591007 11.56335834 31.56952362 6.5625 39.125 C4.00509284 41.99428609 3.51145662 42.3886636 0 43 C-0.33 42.01 -0.66 41.02 -1 40 C-1.639375 40.86625 -2.27875 41.7325 -2.9375 42.625 C-6.25898928 46.59943162 -10.33346617 49.74663948 -15 52 C-17.78125 52.1640625 -17.78125 52.1640625 -20 52 C-17.77481037 49.59820802 -15.47049597 47.96113396 -12.6875 46.25 C-4.35017145 40.74140793 0.27874645 33.7415764 2.75 24.0625 C3.45773504 15.39274579 2.65920398 8.32584104 0 0 Z M5 25 C6 29 6 29 6 29 Z M3 31 C4 33 4 33 4 33 Z M0 37 C1 39 1 39 1 39 Z " fill="#B2693D" transform="translate(76,27)"/>
<path d="M0 0 C4.2863443 -0.2521379 7.97109522 -0.35696696 12.0625 1.0625 C14 3 14 3 14.375 6.5 C14 10 14 10 13 13 C13.495 13.4125 13.99 13.825 14.5 14.25 C16 16 16 16 16 20 C14.02 20 12.04 20 10 20 C9.01 18.02 8.02 16.04 7 14 C7 15.98 7 17.96 7 20 C4.36 20 1.72 20 -1 20 C-1 18.68 -1 17.36 -1 16 C-0.34 16 0.32 16 1 16 C1 12.04 1 8.08 1 4 C0.34 4 -0.32 4 -1 4 C-0.67 2.68 -0.34 1.36 0 0 Z M6 4 C6 5.65 6 7.3 6 9 C6.99 8.67 7.98 8.34 9 8 C8.67 6.68 8.34 5.36 8 4 C7.34 4 6.68 4 6 4 Z " fill="#046133" transform="translate(187,66)"/>
<path d="M0 0 C1.65 0 3.3 0 5 0 C5.33773437 0.81984375 5.67546875 1.6396875 6.0234375 2.484375 C6.46945313 3.56203125 6.91546875 4.6396875 7.375 5.75 C7.81585938 6.81734375 8.25671875 7.8846875 8.7109375 8.984375 C9.89849908 11.89323412 9.89849908 11.89323412 11.1640625 14.140625 C12 16 12 16 12 20 C9.03 20 6.06 20 3 20 C3 18.68 3 17.36 3 16 C2.34 16 1.68 16 1 16 C1 17.32 1 18.64 1 20 C-1.64 20 -4.28 20 -7 20 C-7 18.68 -7 17.36 -7 16 C-6.34 16 -5.68 16 -5 16 C-4.9175 15.21625 -4.835 14.4325 -4.75 13.625 C-3.75634931 8.822355 -1.91286482 4.50190511 0 0 Z M2 8 C1.67 8.99 1.34 9.98 1 11 C1.66 11 2.32 11 3 11 C2.67 10.01 2.34 9.02 2 8 Z " fill="#BE5E26" transform="translate(128,3)"/>
<path d="M0 0 C5.94 0 11.88 0 18 0 C15.43833199 2.56166801 14.44696024 3.44554406 11.3125 4.6875 C10.219375 5.120625 9.12625 5.55375 8 6 C8 6.9075 8 7.815 8 8.75 C8 11.16666667 8 13.58333333 8 16 C7.34 16 6.68 16 6 16 C6.020625 17.0725 6.04125 18.145 6.0625 19.25 C6.0142016 22.14790424 5.86844115 24.28612141 5 27 C3.35 27 1.7 27 0 27 C0 18.09 0 9.18 0 0 Z " fill="#BC5F27" transform="translate(91,0)"/>
<path d="M0 0 C0.33 0 0.66 0 1 0 C1.33 5.61 1.66 11.22 2 17 C2.99 17.33 3.98 17.66 5 18 C5.12375 18.78375 5.2475 19.5675 5.375 20.375 C6.11045214 23.46389897 7.34845656 24.39857529 9.625 26.5 C11 28 11 28 11 30 C11.99 30.33 12.98 30.66 14 31 C13.34 31.33 12.68 31.66 12 32 C11.34786708 34.02463255 11.34786708 34.02463255 11 36 C10.34 36 9.68 36 9 36 C9 35.34 9 34.68 9 34 C7.35 33.67 5.7 33.34 4 33 C4 32.34 4 31.68 4 31 C3.34 30.67 2.68 30.34 2 30 C2 29.34 2 28.68 2 28 C1.01 27.67 0.02 27.34 -1 27 C-1 26.34 -1 25.68 -1 25 C-1.66 25 -2.32 25 -3 25 C-4.99785435 20.8794254 -5.17835515 17.54805635 -5 13 C-3.35 13 -1.7 13 0 13 C-0.33 11.35 -0.66 9.7 -1 8 C-2.32 7.67 -3.64 7.34 -5 7 C-5 6.01 -5 5.02 -5 4 C-3.35 4 -1.7 4 0 4 C0 2.68 0 1.36 0 0 Z " fill="#B5CCDB" transform="translate(16,36)"/>
<path d="M0 0 C1.65 0 3.3 0 5 0 C4.01 3.96 3.02 7.92 2 12 C0.35 12 -1.3 12 -3 12 C-2.67 12.99 -2.34 13.98 -2 15 C-1.01 15.33 -0.02 15.66 1 16 C1.33 17.65 1.66 19.3 2 21 C0.68 21.33 -0.64 21.66 -2 22 C-2.08912219 25.83225427 -1.87867729 29.26562152 -1 33 C-0.34 33 0.32 33 1 33 C2.625 34.375 2.625 34.375 4 36 C4 36.66 4 37.32 4 38 C4.99 38.33 5.98 38.66 7 39 C7 39.66 7 40.32 7 41 C8.32 41.33 9.64 41.66 11 42 C11 42.66 11 43.32 11 44 C11.66 44 12.32 44 13 44 C13 42.35 13 40.7 13 39 C14.65 39.66 16.3 40.32 18 41 C16.68 42.98 15.36 44.96 14 47 C15.65 47 17.3 47 19 47 C19 47.33 19 47.66 19 48 C13.63262463 48.51117861 11.18477878 47.3307423 7 44 C-1.09195404 37.03633585 -5.46743089 28.89573246 -6.30078125 18.10546875 C-6.30464844 16.81253906 -6.30851563 15.51960938 -6.3125 14.1875 C-6.32925781 12.88167969 -6.34601562 11.57585938 -6.36328125 10.23046875 C-6.24339844 9.16441406 -6.12351562 8.09835938 -6 7 C-5.01 6.34 -4.02 5.68 -3 5 C-2.34 5.33 -1.68 5.66 -1 6 C-0.67 4.02 -0.34 2.04 0 0 Z " fill="#F0F2F0" transform="translate(14,28)"/>
<path d="M0 0 C4.29 0 8.58 0 13 0 C13 1.98 13 3.96 13 6 C10.61435923 5.42415568 8.33317216 4.77772405 6 4 C6 5.32 6 6.64 6 8 C7.65 8 9.3 8 11 8 C11 9.32 11 10.64 11 12 C9.35 12 7.7 12 6 12 C6 13.32 6 14.64 6 16 C7.32 16 8.64 16 10 16 C10 15.01 10 14.02 10 13 C10.99 13 11.98 13 13 13 C13 15.31 13 17.62 13 20 C8.38 20 3.76 20 -1 20 C-1 18.68 -1 17.36 -1 16 C-0.34 16 0.32 16 1 16 C1 12.04 1 8.08 1 4 C0.34 4 -0.32 4 -1 4 C-0.67 2.68 -0.34 1.36 0 0 Z " fill="#066033" transform="translate(171,66)"/>
<path d="M0 0 C1.546875 0.99 1.546875 0.99 3.125 2 C2.795 3.65 2.465 5.3 2.125 7 C-4.875 6 -4.875 6 -8.3125 5.375 C-17.23793167 4.43548088 -21.87177658 6.69894894 -28.875 12 C-28.875 11.34 -28.875 10.68 -28.875 10 C-29.535 9.67 -30.195 9.34 -30.875 9 C-30.09125 8.7525 -29.3075 8.505 -28.5 8.25 C-25.55182892 6.84610901 -24.9725223 5.99324263 -23.875 3 C-24.638125 3.680625 -25.40125 4.36125 -26.1875 5.0625 C-27.074375 5.701875 -27.96125 6.34125 -28.875 7 C-29.865 6.67 -30.855 6.34 -31.875 6 C-30.84409707 5.03009724 -29.79959988 4.07463799 -28.75 3.125 C-28.16992188 2.59132813 -27.58984375 2.05765625 -26.9921875 1.5078125 C-19.69131189 -3.69170408 -7.90068465 -3.97855906 0 0 Z " fill="#FDF9F4" transform="translate(55.875,18)"/>
<path d="M0 0 C0.99 0.33 1.98 0.66 3 1 C3 2.98 3 4.96 3 7 C1.68 7 0.36 7 -1 7 C-1.33 6.34 -1.66 5.68 -2 5 C-2.99 5.495 -2.99 5.495 -4 6 C-0.535 7.98 -0.535 7.98 3 10 C3.48309179 16.40096618 3.48309179 16.40096618 1.4375 18.9375 C-1.83782709 20.36520668 -4.4651848 20.26183816 -8 20 C-8.66 19.67 -9.32 19.34 -10 19 C-10 17.02 -10 15.04 -10 13 C-8.68 13.33 -7.36 13.66 -6 14 C-6 14.66 -6 15.32 -6 16 C-5.01 15.67 -4.02 15.34 -3 15 C-2.67 14.34 -2.34 13.68 -2 13 C-2.94875 12.71125 -3.8975 12.4225 -4.875 12.125 C-8 11 -8 11 -10 9 C-10.3267107 5.92891945 -10.48138276 3.84949899 -8.9375 1.125 C-5.95545582 -0.60650952 -3.3753701 -0.24109786 0 0 Z " fill="#046133" transform="translate(214,66)"/>
<path d="M0 0 C6.77839196 5.48040201 6.77839196 5.48040201 7.4375 10 C7.4260662 15.40818889 3.92201835 19.67784786 1 24 C-6.90798722 13.53354633 -6.90798722 13.53354633 -7.1875 8.875 C-5.540135 4.88664263 -3.21006658 2.86857014 0 0 Z " fill="#F2E4D5" transform="translate(44,24)"/>
<path d="M0 0 C1.77049689 -0.05410687 3.54146849 -0.09284119 5.3125 -0.125 C6.29863281 -0.14820313 7.28476563 -0.17140625 8.30078125 -0.1953125 C11 0 11 0 14 2 C14.1875 4.625 14.1875 4.625 14 7 C13.01 7.33 12.02 7.66 11 8 C11 8.66 11 9.32 11 10 C9.02 10 7.04 10 5 10 C5 11.65 5 13.3 5 15 C6.65 14.67 8.3 14.34 10 14 C10.33 13.01 10.66 12.02 11 11 C11.99 11.33 12.98 11.66 14 12 C13.125 16.875 13.125 16.875 12 18 C9.98035801 18.07244053 7.95832876 18.08377188 5.9375 18.0625 C4.83277344 18.05347656 3.72804688 18.04445313 2.58984375 18.03515625 C1.30787109 18.01775391 1.30787109 18.01775391 0 18 C0 17.34 0 16.68 0 16 C0.66 16 1.32 16 2 16 C2 11.71 2 7.42 2 3 C1.34 3 0.68 3 0 3 C0 2.01 0 1.02 0 0 Z " fill="#F0FEFE" transform="translate(97,35)"/>
<path d="M0 0 C0.66 0.33 1.32 0.66 2 1 C2 1.99 2 2.98 2 4 C3.11375 4.20625 4.2275 4.4125 5.375 4.625 C9 6 9 6 10.4375 9.125 C10.623125 10.07375 10.80875 11.0225 11 12 C6.07484638 14.46257681 -1.33230273 13.544755 -6.6015625 12.46875 C-8.75 11.75 -8.75 11.75 -12 10 C-13.12097787 7.14869219 -13.07517621 6.22051688 -12.0625 3.25 C-11.711875 2.5075 -11.36125 1.765 -11 1 C-7.7 1.33 -4.4 1.66 -1 2 C-0.67 1.34 -0.34 0.68 0 0 Z M4 6 C3.67 7.65 3.34 9.3 3 11 C4.32 10.67 5.64 10.34 7 10 C7 8.68 7 7.36 7 6 C6.01 6 5.02 6 4 6 Z " fill="#EEEEEB" transform="translate(41,67)"/>
<path d="M0 0 C2.64 0 5.28 0 8 0 C8 0.66 8 1.32 8 2 C7.34 2 6.68 2 6 2 C6.33 5.96 6.66 9.92 7 14 C8.32 14 9.64 14 11 14 C11 9.38 11 4.76 11 0 C13.31 0 15.62 0 18 0 C17.93958131 2.0632984 17.85068362 4.12577414 17.75 6.1875 C17.68039063 7.91033203 17.68039063 7.91033203 17.609375 9.66796875 C16.89834477 13.55584557 15.845202 15.28572765 13 18 C10.05506618 18.85917455 8.13867651 18.3985621 5 18 C3.265625 16.88671875 3.265625 16.88671875 2 15 C1.70703125 11.86328125 1.70703125 11.86328125 1.8125 8.3125 C1.83957031 7.13300781 1.86664063 5.95351562 1.89453125 4.73828125 C1.92933594 3.83464844 1.96414062 2.93101563 2 2 C1.34 2 0.68 2 0 2 C0 1.34 0 0.68 0 0 Z " fill="#D3EFE4" transform="translate(95,67)"/>
<path d="M0 0 C2.475 0.99 2.475 0.99 5 2 C5 4 5 6 5 8 C5.763125 7.773125 6.52625 7.54625 7.3125 7.3125 C10 7 10 7 11.875 8 C13.62020832 11.10259257 12.69997967 13.6273707 12 17 C13.65 17 15.3 17 17 17 C17 18.65 17 20.3 17 22 C15.68 22.33 14.36 22.66 13 23 C13 22.01 13 21.02 13 20 C12.4225 19.95875 11.845 19.9175 11.25 19.875 C7.89112419 18.56877052 6.9270445 15.97815968 5 13 C2.3908613 10.67722584 2.3908613 10.67722584 0 9 C0.33 9.99 0.66 10.98 1 12 C-0.8125 12.625 -0.8125 12.625 -3 13 C-3.99 12.34 -4.98 11.68 -6 11 C-5.34 9.02 -4.68 7.04 -4 5 C-4.66 4.34 -5.32 3.68 -6 3 C-5.195625 2.87625 -4.39125 2.7525 -3.5625 2.625 C-2.716875 2.41875 -1.87125 2.2125 -1 2 C-0.67 1.34 -0.34 0.68 0 0 Z " fill="#B76231" transform="translate(66,7)"/>
<path d="M0 0 C1.65 0 3.3 0 5 0 C4.34 1.32 3.68 2.64 3 4 C3 3.01 3 2.02 3 1 C2.34 1 1.68 1 1 1 C1 1.66 1 2.32 1 3 C-5 6 -5 6 -7 6 C-8.35335895 6.97272675 -9.68662604 7.9739266 -11 9 C-11.99 9.495 -11.99 9.495 -13 10 C-13 9.34 -13 8.68 -13 8 C-14.32 8 -15.64 8 -17 8 C-16.34 9.65 -15.68 11.3 -15 13 C-15.99 13 -16.98 13 -18 13 C-18 13.99 -18 14.98 -18 16 C-19 18.1875 -19 18.1875 -20 20 C-20.99 20 -21.98 20 -23 20 C-23.33 20.66 -23.66 21.32 -24 22 C-23.34 22.33 -22.68 22.66 -22 23 C-22.66 23 -23.32 23 -24 23 C-24.33 23.99 -24.66 24.98 -25 26 C-26.32 25.67 -27.64 25.34 -29 25 C-26.81002729 16.1775385 -21.96776421 7.82259413 -14 3 C-11.4375 2.875 -11.4375 2.875 -9 3 C-8.34 2.649375 -7.68 2.29875 -7 1.9375 C-4.34415882 0.69257445 -2.76432655 1.23213151 0 2 C0 1.34 0 0.68 0 0 Z " fill="#CFD4D6" transform="translate(38,9)"/>
<path d="M0 0 C0 3 0 3 -1 5 C0.98 4.67 2.96 4.34 5 4 C4.505 4.804375 4.01 5.60875 3.5 6.4375 C1.91580347 8.64896185 1.91580347 8.64896185 2 10 C0.86280581 13.41158256 -0.04342944 14.11854601 -3 16 C-3.66 16 -4.32 16 -5 16 C-5.33 16.66 -5.66 17.32 -6 18 C-6.33 17.34 -6.66 16.68 -7 16 C-9.3140622 15.26924352 -11.64828869 14.59861742 -14 14 C-13.34 13.67 -12.68 13.34 -12 13 C-12 12.01 -12 11.02 -12 10 C-13.093125 10 -14.18625 10 -15.3125 10 C-17.54166667 10 -19.77083333 10 -22 10 C-21.67 9.34 -21.34 8.68 -21 8 C-18.7421875 7.7265625 -18.7421875 7.7265625 -15.875 7.625 C-9.56975117 7.16643645 -5.80235773 5.53116182 -1.0625 1.25 C-0.5365625 0.63125 -0.5365625 0.63125 0 0 Z " fill="#F8F3EC" transform="translate(60,56)"/>
<path d="M0 0 C2.3129482 2.3129482 2.49580975 3.47904875 3.125 6.625 C3.29257813 7.44226562 3.46015625 8.25953125 3.6328125 9.1015625 C3.81457031 10.04128906 3.81457031 10.04128906 4 11 C4.66 10.01 5.32 9.02 6 8 C8.625 7.3125 8.625 7.3125 11 7 C11.24397009 13.4923153 11.16463662 19.80005314 9 26 C8.34 26.66 7.68 27.32 7 28 C7.495 23.545 7.495 23.545 8 19 C7.01 19 6.02 19 5 19 C5 19.99 5 20.98 5 22 C5.66 22 6.32 22 7 22 C6.67 22.66 6.34 23.32 6 24 C5.34 23.67 4.68 23.34 4 23 C4 23.66 4 24.32 4 25 C4.66 25 5.32 25 6 25 C5.01 27.475 5.01 27.475 4 30 C2.68 29.67 1.36 29.34 0 29 C0.350625 27.9275 0.70125 26.855 1.0625 25.75 C2.00531309 21.97874766 1.90203508 21.44413393 1 18 C0.95637109 16.04215272 0.96014397 14.08292772 1 12.125 C1.04077605 7.95564856 0.90918857 4.09134857 0 0 Z " fill="#EAD8CD" transform="translate(69,31)"/>
<path d="M0 0 C1.8871875 0.061875 1.8871875 0.061875 3.8125 0.125 C4.1425 1.775 4.4725 3.425 4.8125 5.125 C3.8225 5.125 2.8325 5.125 1.8125 5.125 C1.8125 4.465 1.8125 3.805 1.8125 3.125 C0.4925 3.455 -0.8275 3.785 -2.1875 4.125 C-2.1875 4.785 -2.1875 5.445 -2.1875 6.125 C-1.218125 6.599375 -0.24875 7.07375 0.75 7.5625 C3.8125 9.125 3.8125 9.125 4.8125 10.125 C5.125 13 5.125 13 4.8125 16.125 C2.51593609 18.77488144 1.18795798 19.09496336 -2.3125 19.375 C-5.1875 19.125 -5.1875 19.125 -7.1875 18.125 C-7.1875 16.475 -7.1875 14.825 -7.1875 13.125 C-6.1975 13.125 -5.2075 13.125 -4.1875 13.125 C-4.1875 13.785 -4.1875 14.445 -4.1875 15.125 C-2.5375 15.125 -0.8875 15.125 0.8125 15.125 C0.09610801 11.83656462 0.09610801 11.83656462 -3.1875 10.5 C-4.1775 10.04625 -5.1675 9.5925 -6.1875 9.125 C-7.1875 8.125 -7.1875 8.125 -7.4375 5.1875 C-7.355 4.176875 -7.2725 3.16625 -7.1875 2.125 C-4.09861478 0.06574319 -3.47814073 -0.1140374 0 0 Z " fill="#FDF3E8" transform="translate(105.1875,3.875)"/>
<path d="M0 0 C0.66 0 1.32 0 2 0 C3.57950996 8.7591007 2.56335834 16.56952362 -2.4375 24.125 C-4.99490716 26.99428609 -5.48854338 27.3886636 -9 28 C-8.6310964 24.31096404 -7.8411979 21.51944603 -6.0625 18.3125 C-3.83048691 14.13855495 -3.136181 10.07706456 -2.4921875 5.41796875 C-2 3 -2 3 0 0 Z " fill="#086031" transform="translate(85,42)"/>
<path d="M0 0 C0.66 0 1.32 0 2 0 C3.5512336 3.65551571 4.66902411 7.27212749 5.625 11.125 C5.88539063 12.15882812 6.14578125 13.19265625 6.4140625 14.2578125 C7 17 7 17 7 20 C7.66 20 8.32 20 9 20 C9.66 22.64 10.32 25.28 11 28 C7.90272435 27.43685897 5.67268197 26.94002993 3.78125 24.296875 C2.73992571 22.23000406 1.84395327 20.15451531 1 18 C0.5875 17.030625 0.175 16.06125 -0.25 15.0625 C-1.49436373 9.98134812 -1.66038289 4.98114868 0 0 Z " fill="#066130" transform="translate(1,42)"/>
<path d="M0 0 C0.33 0.66 0.66 1.32 1 2 C1.99 2.66 2.98 3.32 4 4 C1.69 4.66 -0.62 5.32 -3 6 C-3 6.66 -3 7.32 -3 8 C-4.175625 8.433125 -4.175625 8.433125 -5.375 8.875 C-8.09671632 9.84912254 -8.09671632 9.84912254 -10 12 C-14.4669333 13.54624614 -18.27960464 14.23026319 -23 14 C-23 12.68 -23 11.36 -23 10 C-22.34 10 -21.68 10 -21 10 C-20.67 9.01 -20.34 8.02 -20 7 C-19.26910156 7.21140625 -18.53820313 7.4228125 -17.78515625 7.640625 C-14.43279698 8.07318749 -13.29013521 7.47646444 -10.4375 5.75 C-9.69371094 5.31171875 -8.94992188 4.8734375 -8.18359375 4.421875 C-5.96232826 3.01854934 -5.96232826 3.01854934 -3.84765625 1.328125 C-2 0 -2 0 0 0 Z " fill="#31318C" transform="translate(74,73)"/>
<path d="M0 0 C2.97 0 5.94 0 9 0 C9 0.99 9 1.98 9 3 C8.34 3 7.68 3 7 3 C7.14166357 4.91697937 7.28849584 6.83357723 7.4375 8.75 C7.51871094 9.81734375 7.59992188 10.8846875 7.68359375 11.984375 C7.94913876 15.1931585 7.94913876 15.1931585 9 19 C6.03 19 3.06 19 0 19 C0.66 13.72 1.32 8.44 2 3 C1.34 3 0.68 3 0 3 C0 2.01 0 1.02 0 0 Z " fill="#0564AD" transform="translate(121,35)"/>
<path d="M0 0 C0.33 0.66 0.66 1.32 1 2 C0.06553465 4.03144641 -0.93224776 6.03533587 -2 8 C0.3431213 7.74438677 2.67843403 7.40729228 5 7 C5.33 6.34 5.66 5.68 6 5 C5.34 5 4.68 5 4 5 C4.33 3.35 4.66 1.7 5 0 C6.9375 0.8125 6.9375 0.8125 9 2 C9.33 2.99 9.66 3.98 10 5 C10.66 5 11.32 5 12 5 C12 6.65 12 8.3 12 10 C11.34 10 10.68 10 10 10 C10 9.34 10 8.68 10 8 C9.01 8.495 9.01 8.495 8 9 C5.70190464 9.30869938 3.40279871 9.50883648 1.09375 9.71875 C-1.05443933 9.892155 -1.05443933 9.892155 -3 11 C-1.02 11.99 0.96 12.98 3 14 C2.01 14.33 1.02 14.66 0 15 C0 16.32 0 17.64 0 19 C-0.92232422 19.05607422 -0.92232422 19.05607422 -1.86328125 19.11328125 C-3.07564453 19.21189453 -3.07564453 19.21189453 -4.3125 19.3125 C-5.11300781 19.37050781 -5.91351563 19.42851563 -6.73828125 19.48828125 C-9.36272334 20.08206694 -10.30820672 20.95780294 -12 23 C-12 21.68 -12 20.36 -12 19 C-8.91111478 16.94074319 -8.29064073 16.7609626 -4.8125 16.875 C-3.554375 16.91625 -2.29625 16.9575 -1 17 C-1 16.34 -1 15.68 -1 15 C-1.99 14.67 -2.98 14.34 -4 14 C-5.3671875 12.265625 -5.3671875 12.265625 -6 10 C-4.8828125 7.421875 -4.8828125 7.421875 -3.125 4.75 C-2.55007812 3.85796875 -1.97515625 2.9659375 -1.3828125 2.046875 C-0.92648438 1.37140625 -0.47015625 0.6959375 0 0 Z " fill="#DA8853" transform="translate(50,38)"/>
<path d="M0 0 C0 0.99 0 1.98 0 3 C2.97 3 5.94 3 9 3 C9 3.33 9 3.66 9 4 C6.69 4 4.38 4 2 4 C2.33 4.66 2.66 5.32 3 6 C3.07065617 8.04055005 3.08421976 10.08334257 3.0625 12.125 C3.05347656 13.22070312 3.04445313 14.31640625 3.03515625 15.4453125 C3.02355469 16.28835937 3.01195313 17.13140625 3 18 C1.34385343 18.38218767 -0.32457024 18.71395102 -2 19 C-3 18 -3 18 -3.09765625 15.27734375 C-3.08605469 14.17519531 -3.07445313 13.07304688 -3.0625 11.9375 C-3.05347656 10.83277344 -3.04445313 9.72804688 -3.03515625 8.58984375 C-3.02355469 7.73519531 -3.01195313 6.88054687 -3 6 C-2.34 6 -1.68 6 -1 6 C-1 5.34 -1 4.68 -1 4 C-3.64 4 -6.28 4 -9 4 C-8 2 -8 2 -5.0625 0.875 C-2 0 -2 0 0 0 Z " fill="#11633D" transform="translate(104,63)"/>
<path d="M0 0 C6.53147419 4.96919074 11.67481354 10.9675377 14 19 C14.125 22.3125 14.125 22.3125 14 25 C13.1028125 25.12375 13.1028125 25.12375 12.1875 25.25 C9.39829126 26.20630014 8.65523707 27.62860019 7 30 C6.87882812 29.26394531 6.75765625 28.52789062 6.6328125 27.76953125 C6.46523437 26.79371094 6.29765625 25.81789063 6.125 24.8125 C5.96257812 23.84957031 5.80015625 22.88664062 5.6328125 21.89453125 C5.01960483 19.08967396 4.14333657 16.62775253 3 14 C3.66 14 4.32 14 5 14 C5.33 15.32 5.66 16.64 6 18 C6.66 18 7.32 18 8 18 C8 19.32 8 20.64 8 22 C8.99 22 9.98 22 11 22 C9.12241811 15.59915264 7.0802761 10.0802761 2.25 5.25 C1.8375 4.8375 1.425 4.425 1 4 C1 3.34 1 2.68 1 2 C0.34 1.67 -0.32 1.34 -1 1 C-0.67 0.67 -0.34 0.34 0 0 Z " fill="#E7ECEE" transform="translate(65,14)"/>
<path d="M0 0 C4.94151304 2.40016348 7.04331244 5.52273027 10 10 C8.02 10.99 8.02 10.99 6 12 C6 11.01 6 10.02 6 9 C3.5609294 6.79857668 3.5609294 6.79857668 1 5 C1.28617188 5.56203125 1.57234375 6.1240625 1.8671875 6.703125 C5.22112911 13.50353076 7.82334188 19.31547581 7 27 C6.34 27.66 5.68 28.32 5 29 C4.67 26.03 4.34 23.06 4 20 C3.67 20 3.34 20 3 20 C1 13.375 1 13.375 1 10 C-0.27754554 7.9639118 -1.60699818 5.95890881 -3 4 C-2.34 3.67 -1.68 3.34 -1 3 C-0.67 2.01 -0.34 1.02 0 0 Z " fill="#C88854" transform="translate(58,21)"/>
<path d="M0 0 C0.99 0 1.98 0 3 0 C3 0.66 3 1.32 3 2 C4.1446875 2.0928125 4.1446875 2.0928125 5.3125 2.1875 C8 3 8 3 9.8125 5.4375 C11.54829958 9.18317279 11 12.88687861 11 17 C9.02 15.35 7.04 13.7 5 12 C4.67 12.99 4.34 13.98 4 15 C3.79503906 14.16855469 3.59007812 13.33710937 3.37890625 12.48046875 C3.10949219 11.39378906 2.84007812 10.30710937 2.5625 9.1875 C2.29566406 8.10855469 2.02882812 7.02960937 1.75390625 5.91796875 C1.23922588 3.9259157 0.65062825 1.95188476 0 0 Z " fill="#E9802D" transform="translate(50,26)"/>
<path d="M0 0 C2.64 0.33 5.28 0.66 8 1 C8 1.99 8 2.98 8 4 C8.969375 4.433125 9.93875 4.86625 10.9375 5.3125 C14 7 14 7 15 10 C14.67 10.33 14.34 10.66 14 11 C14.99 11.66 15.98 12.32 17 13 C15.35 13.33 13.7 13.66 12 14 C11.34 12.02 10.68 10.04 10 8 C6.37 7.67 2.74 7.34 -1 7 C0.32 6.67 1.64 6.34 3 6 C2.67 5.01 2.34 4.02 2 3 C1.01 3 0.02 3 -1 3 C-0.67 2.01 -0.34 1.02 0 0 Z M5 8 C5.99 8.33 6.98 8.66 8 9 C8 9.99 8 10.98 8 12 C6.68 12.33 5.36 12.66 4 13 C4.33 11.35 4.66 9.7 5 8 Z " fill="#B3B6B9" transform="translate(40,65)"/>
<path d="M0 0 C3.96 0 7.92 0 12 0 C12 0.33 12 0.66 12 1 C14.31 1.33 16.62 1.66 19 2 C18.01 2.495 18.01 2.495 17 3 C17.33 4.65 17.66 6.3 18 8 C15.625 8.125 15.625 8.125 13 8 C12.34 7.34 11.68 6.68 11 6 C8.8625599 5.61405508 8.8625599 5.61405508 6.5 5.5 C2.22222222 5.22222222 2.22222222 5.22222222 0 3 C0 2.01 0 1.02 0 0 Z " fill="#313189" transform="translate(30,82)"/>
<path d="M0 0 C0.639375 0.45375 1.27875 0.9075 1.9375 1.375 C0.2875 3.025 -1.3625 4.675 -3.0625 6.375 C-3.784375 5.92125 -4.50625 5.4675 -5.25 5 C-7.98296027 3.32429496 -7.98296027 3.32429496 -10.8125 2.3125 C-13.0625 1.375 -13.0625 1.375 -14.0625 -0.625 C-14.3925 0.365 -14.7225 1.355 -15.0625 2.375 C-15.0625 1.385 -15.0625 0.395 -15.0625 -0.625 C-15.7225 -0.955 -16.3825 -1.285 -17.0625 -1.625 C-11.30956675 -4.96541286 -5.5266145 -2.93248933 0 0 Z " fill="#6A92B6" transform="translate(61.0625,10.625)"/>
<path d="M0 0 C0.33 0.66 0.66 1.32 1 2 C3.52733235 2.65555119 3.52733235 2.65555119 6 3 C5.01 3.33 4.02 3.66 3 4 C3 4.66 3 5.32 3 6 C2.34 6 1.68 6 1 6 C1.33 6.99 1.66 7.98 2 9 C1.01 9.33 0.02 9.66 -1 10 C-1.33 10.66 -1.66 11.32 -2 12 C-2.99 12 -3.98 12 -5 12 C-5.33 12.66 -5.66 13.32 -6 14 C-8.0625 15.125 -8.0625 15.125 -10 16 C-10.33 15.01 -10.66 14.02 -11 13 C-10.34 13 -9.68 13 -9 13 C-8.67 12.34 -8.34 11.68 -8 11 C-7.01979625 9.9805881 -6.02196992 8.97753644 -5 8 C-5.66 7.67 -6.32 7.34 -7 7 C-4.66666667 4.66666667 -2.33333333 2.33333333 0 0 Z " fill="#7BA4BF" transform="translate(66,59)"/>
<path d="M0 0 C2.9375 0.75 2.9375 0.75 6 2 C6.3721042 3.32303717 6.70630173 4.65737935 7 6 C8.66072849 6.68132451 10.327767 7.34742127 12 8 C13.3125 10.125 13.3125 10.125 14 12 C13.01 12.33 12.02 12.66 11 13 C10.67 12.67 10.34 12.34 10 12 C9.34 12 8.68 12 8 12 C8 11.34 8 10.68 8 10 C6.35 9.67 4.7 9.34 3 9 C3 8.34 3 7.68 3 7 C2.34 7 1.68 7 1 7 C0.67 4.69 0.34 2.38 0 0 Z " fill="#2D3285" transform="translate(14,71)"/>
<path d="M0 0 C5.63450072 3.38070043 8.05193683 8.92389821 10 15 C9.67 15.99 9.34 16.98 9 18 C8.01 17.67 7.02 17.34 6 17 C6 15.68 6 14.36 6 13 C5.34 13 4.68 13 4 13 C3.896875 12.360625 3.79375 11.72125 3.6875 11.0625 C3.460625 10.381875 3.23375 9.70125 3 9 C2.01 8.67 1.02 8.34 0 8 C-0.38063221 5.6739143 -0.71269945 3.33944736 -1 1 C-0.67 0.67 -0.34 0.34 0 0 Z " fill="#A9C3DA" transform="translate(67,19)"/>
<path d="M0 0 C2 3 2 3 3 5 C5.02463255 5.65213292 5.02463255 5.65213292 7 6 C6.67 6.66 6.34 7.32 6 8 C6.99 8.33 7.98 8.66 9 9 C8.34 9 7.68 9 7 9 C7.66 11.64 8.32 14.28 9 17 C8.34 17 7.68 17 7 17 C5.66796875 15.390625 5.66796875 15.390625 4.1875 13.25 C1.76786276 9.90155335 -0.62821449 7.43517842 -4 5 C-4.66 4.34 -5.32 3.68 -6 3 C-4.35 3 -2.7 3 -1 3 C-0.67 2.01 -0.34 1.02 0 0 Z " fill="#DDE9EB" transform="translate(60,14)"/>
<path d="M0 0 C0.66 0.66 1.32 1.32 2 2 C2.66 1.34 3.32 0.68 4 0 C12.20588235 -0.52941176 12.20588235 -0.52941176 16 2 C13.04705002 4.56440393 11.35663003 5.97779326 7.375 6.04296875 C4.89430387 5.77869004 2.45415169 5.4462094 0 5 C-0.5625 3.0625 -0.5625 3.0625 -1 1 C-0.67 0.67 -0.34 0.34 0 0 Z " fill="#F8EBD7" transform="translate(37,57)"/>
<path d="M0 0 C2.0625 0.4375 2.0625 0.4375 4 1 C4 1.66 4 2.32 4 3 C4.66 3.66 5.32 4.32 6 5 C5.67 5.66 5.34 6.32 5 7 C6.32 6.67 7.64 6.34 9 6 C9 6.66 9 7.32 9 8 C10.65 8 12.3 8 14 8 C14.33 8.66 14.66 9.32 15 10 C14.34 10 13.68 10 13 10 C12.67 11.32 12.34 12.64 12 14 C11.34 14 10.68 14 10 14 C10 13.34 10 12.68 10 12 C8.35 11.67 6.7 11.34 5 11 C5 10.34 5 9.68 5 9 C4.34 8.67 3.68 8.34 3 8 C3 7.34 3 6.68 3 6 C2.01 5.67 1.02 5.34 0 5 C-0.75 3 -0.75 3 -1 1 C-0.67 0.67 -0.34 0.34 0 0 Z " fill="#B7C6D6" transform="translate(15,58)"/>
<path d="M0 0 C1.65 0 3.3 0 5 0 C4.34 1.32 3.68 2.64 3 4 C3 3.01 3 2.02 3 1 C2.34 1 1.68 1 1 1 C1 1.66 1 2.32 1 3 C-5 6 -5 6 -7 6 C-8.35335895 6.97272675 -9.68662604 7.9739266 -11 9 C-11.99 9.495 -11.99 9.495 -13 10 C-13 9.34 -13 8.68 -13 8 C-13.99 7.67 -14.98 7.34 -16 7 C-16 6.01 -16 5.02 -16 4 C-14.9275 3.87625 -13.855 3.7525 -12.75 3.625 C-9.16470196 3.23058275 -9.16470196 3.23058275 -6.875 1.875 C-4.30575504 0.67601902 -2.66750795 1.25902557 0 2 C0 1.34 0 0.68 0 0 Z " fill="#7594B1" transform="translate(38,9)"/>
<path d="M0 0 C0.33 0.66 0.66 1.32 1 2 C1.66 2 2.32 2 3 2 C5 5 5 5 5.875 8.5625 C6.63369325 12.06861674 6.63369325 12.06861674 9.125 13.4375 C9.74375 13.623125 10.3625 13.80875 11 14 C11 15.65 11 17.3 11 19 C7.63983107 17.87994369 6.30935087 16.62788203 4 14 C4 13.34 4 12.68 4 12 C3.34 12 2.68 12 2 12 C0.40861915 7.82262526 -0.21278058 4.46839215 0 0 Z " fill="#E6802C" transform="translate(24,41)"/>
<path d="M0 0 C1.65 0.33 3.3 0.66 5 1 C5 1.66 5 2.32 5 3 C6.98 3.66 8.96 4.32 11 5 C10.67 6.32 10.34 7.64 10 9 C5.97007218 8.44687265 1.97977076 7.8441938 -2 7 C-1.34 4.69 -0.68 2.38 0 0 Z " fill="#A5C0CB" transform="translate(30,68)"/>
<path d="M0 0 C0.66 0.33 1.32 0.66 2 1 C0.64891639 4.09010211 -0.79017933 5.96910153 -3.375 8.125 C-4.25285156 8.87136719 -4.25285156 8.87136719 -5.1484375 9.6328125 C-9.19240883 12.61886728 -11.95431444 13.22934934 -17 13 C-15.6875 11.5 -15.6875 11.5 -14 10 C-13.01 10 -12.02 10 -11 10 C-10.67 8.68 -10.34 7.36 -10 6 C-8.68 6.33 -7.36 6.66 -6 7 C-5.67 6.01 -5.34 5.02 -5 4 C-3.68 4 -2.36 4 -1 4 C-0.67 2.68 -0.34 1.36 0 0 Z " fill="#ECEFF1" transform="translate(70,64)"/>
<path d="M0 0 C5.875 4.75 5.875 4.75 7 7 C7.1875 10.5 7.1875 10.5 7 14 C6.34 14.66 5.68 15.32 5 16 C4.01 15.67 3.02 15.34 2 15 C1.375 12.125 1.375 12.125 1 9 C1.66 8.34 2.32 7.68 3 7 C3 6.34 3 5.68 3 5 C1.35 4.67 -0.3 4.34 -2 4 C-1.34 2.68 -0.68 1.36 0 0 Z " fill="#FEF4E4" transform="translate(44,24)"/>
<path d="M0 0 C0.79148437 -0.02578125 1.58296875 -0.0515625 2.3984375 -0.078125 C5.09524878 0.31929982 5.93229015 1.17506535 7.625 3.25 C3.72471775 5.85018816 0.15065431 5.40085514 -4.375 5.25 C-4.9375 3.3125 -4.9375 3.3125 -5.375 1.25 C-3.79577594 -0.32922406 -2.18056126 0.042341 0 0 Z " fill="#FDF3DF" transform="translate(35.375,46.75)"/>
<path d="M0 0 C1.8871875 0.061875 1.8871875 0.061875 3.8125 0.125 C4.4725 1.445 5.1325 2.765 5.8125 4.125 C4.8125 5.125 4.8125 5.125 1 5.375 C-2.62716299 5.34895215 -4.54755703 4.76494297 -7.1875 2.125 C-4.09861478 0.06574319 -3.47814073 -0.1140374 0 0 Z " fill="#FCF5E8" transform="translate(53.1875,46.875)"/>
<path d="M0 0 C-0.928125 1.1446875 -0.928125 1.1446875 -1.875 2.3125 C-4.05597052 4.99625809 -4.05597052 4.99625809 -6 8 C-9 6 -9 6 -9.8125 4.0625 C-10 2 -10 2 -8 -1 C-4.37673261 -2.2077558 -3.35853631 -1.54311128 0 0 Z " fill="#F1E7DA" transform="translate(35,37)"/>
<path d="M0 0 C3.63 0 7.26 0 11 0 C11 3.20395416 10.25664978 5.09399739 9 8 C7.68 8 6.36 8 5 8 C4.67 6.02 4.34 4.04 4 2 C2.68 2.33 1.36 2.66 0 3 C0 2.01 0 1.02 0 0 Z " fill="#93C5DE" transform="translate(97,35)"/>
<path d="M0 0 C0.33 0.66 0.66 1.32 1 2 C1.99 2.33 2.98 2.66 4 3 C4.12375 3.78375 4.2475 4.5675 4.375 5.375 C5.11045214 8.46389897 6.34845656 9.39857529 8.625 11.5 C10 13 10 13 10 15 C7.69 14.67 5.38 14.34 3 14 C3 13.34 3 12.68 3 12 C2.01 11.34 1.02 10.68 0 10 C0.66 10 1.32 10 2 10 C1.01 8.68 0.02 7.36 -1 6 C-0.34 6 0.32 6 1 6 C0.67 4.02 0.34 2.04 0 0 Z " fill="#E4D9D5" transform="translate(17,51)"/>
<path d="M0 0 C0 0.33 0 0.66 0 1 C-5.20769442 2.71547581 -9.7203207 3.31160202 -15.1875 3.25 C-15.88552734 3.25773437 -16.58355469 3.26546875 -17.30273438 3.2734375 C-21.02752063 3.25926134 -23.8386783 3.05853506 -27 1 C-25.74703125 0.93941406 -24.4940625 0.87882812 -23.203125 0.81640625 C-21.55207276 0.73197744 -19.90103165 0.64733061 -18.25 0.5625 C-17.425 0.52318359 -16.6 0.48386719 -15.75 0.44335938 C-14.95078125 0.40146484 -14.1515625 0.35957031 -13.328125 0.31640625 C-12.5949707 0.27974854 -11.86181641 0.24309082 -11.10644531 0.20532227 C-8.98157131 0.05391865 -8.98157131 0.05391865 -6.90136719 -0.54711914 C-4.38710764 -1.14598296 -2.47787696 -0.61946924 0 0 Z " fill="#AA6342" transform="translate(59,79)"/>
<path d="M0 0 C-0.125 1.8125 -0.125 1.8125 -1 4 C-2.98320018 5.03291676 -4.98347806 6.0337499 -7 7 C-7.33 7.99 -7.66 8.98 -8 10 C-8.66 9.67 -9.32 9.34 -10 9 C-9.67 7.35 -9.34 5.7 -9 4 C-10.32 3.34 -11.64 2.68 -13 2 C-3.28571429 0 -3.28571429 0 0 0 Z " fill="#DE8640" transform="translate(44,51)"/>
<path d="M0 0 C2 3 2 3 2 5 C4.31 5.33 6.62 5.66 9 6 C9 6.33 9 6.66 9 7 C1.2723068 7.31806054 -4.93924474 7.32270836 -12 4 C-12 3.67 -12 3.34 -12 3 C-11.07767578 3.05220703 -11.07767578 3.05220703 -10.13671875 3.10546875 C-8.92435547 3.14607422 -8.92435547 3.14607422 -7.6875 3.1875 C-6.88699219 3.22230469 -6.08648437 3.25710937 -5.26171875 3.29296875 C-2.52148416 2.93801608 -1.70828921 2.10633718 0 0 Z " fill="#E9E5E4" transform="translate(41,73)"/>
<path d="M0 0 C2.97 0 5.94 0 9 0 C9 0.99 9 1.98 9 3 C8.34 3 7.68 3 7 3 C6.67 3.99 6.34 4.98 6 6 C5.01 5.67 4.02 5.34 3 5 C3 8.3 3 11.6 3 15 C2.67 15 2.34 15 2 15 C2 11.04 2 7.08 2 3 C1.34 3 0.68 3 0 3 C0 2.01 0 1.02 0 0 Z " fill="#0A62A7" transform="translate(148,35)"/>
<path d="M0 0 C2.31 0 4.62 0 7 0 C7 0.66 7 1.32 7 2 C6.34 2 5.68 2 5 2 C5 5.3 5 8.6 5 12 C4.01 12.33 3.02 12.66 2 13 C1.93941406 12.31292969 1.87882812 11.62585938 1.81640625 10.91796875 C1.73261719 10.01691406 1.64882812 9.11585937 1.5625 8.1875 C1.48128906 7.29417969 1.40007812 6.40085937 1.31640625 5.48046875 C1.06510233 2.87256441 1.06510233 2.87256441 0 0 Z " fill="#EFFEF7" transform="translate(106,67)"/>
<path d="M0 0 C0.7734375 -0.01417969 1.546875 -0.02835938 2.34375 -0.04296875 C4.5 0.1875 4.5 0.1875 7.5 2.1875 C6.4275 2.290625 5.355 2.39375 4.25 2.5 C0.64179128 3.16150493 -0.86395023 3.76233421 -3.5 6.1875 C-3.5 5.1975 -3.5 4.2075 -3.5 3.1875 C-6.47 3.8475 -9.44 4.5075 -12.5 5.1875 C-8.29799694 1.66690284 -5.50132728 0.04584439 0 0 Z " fill="#C17C4A" transform="translate(43.5,21.8125)"/>
<path d="M0 0 C4.94151304 2.40016348 7.04331244 5.52273027 10 10 C8.02 10.99 8.02 10.99 6 12 C6 11.01 6 10.02 6 9 C2.7309841 5.8217901 1.67834007 5 -3 5 C-2.01 3.35 -1.02 1.7 0 0 Z " fill="#A8A09C" transform="translate(58,21)"/>
<path d="M0 0 C0.66 0.33 1.32 0.66 2 1 C0.515 2.485 0.515 2.485 -1 4 C-0.401875 3.690625 0.19625 3.38125 0.8125 3.0625 C3 2 3 2 6 1 C5.6875 2.875 5.6875 2.875 5 5 C4.01 5.66 3.02 6.32 2 7 C1.67 7.33 1.34 7.66 1 8 C1 8.66 1 9.32 1 10 C-0.32 10 -1.64 10 -3 10 C-4 7 -4 7 -4 4 C-2 1.8125 -2 1.8125 0 0 Z " fill="#C0AFA8" transform="translate(26,20)"/>
<path d="M0 0 C0.66 0 1.32 0 2 0 C2 0.66 2 1.32 2 2 C4.31 2.66 6.62 3.32 9 4 C8.01 4.33 7.02 4.66 6 5 C6 6.32 6 7.64 6 9 C5.38511719 9.03738281 4.77023438 9.07476562 4.13671875 9.11328125 C2.92435547 9.21189453 2.92435547 9.21189453 1.6875 9.3125 C0.88699219 9.37050781 0.08648437 9.42851563 -0.73828125 9.48828125 C-3.36272334 10.08206694 -4.30820672 10.95780294 -6 13 C-6 11.68 -6 10.36 -6 9 C-2.91111478 6.94074319 -2.29064073 6.7609626 1.1875 6.875 C3.0746875 6.936875 3.0746875 6.936875 5 7 C5 6.34 5 5.68 5 5 C4.01 4.67 3.02 4.34 2 4 C0.8125 1.9375 0.8125 1.9375 0 0 Z " fill="#9F693B" transform="translate(44,48)"/>
<path d="M0 0 C0.66 0 1.32 0 2 0 C2.33 1.32 2.66 2.64 3 4 C3.66 4 4.32 4 5 4 C5 5.32 5 6.64 5 8 C5.99 8 6.98 8 8 8 C8.66 7.34 9.32 6.68 10 6 C10.33 7.65 10.66 9.3 11 11 C10.1028125 11.12375 10.1028125 11.12375 9.1875 11.25 C6.39829126 12.20630014 5.65523707 13.62860019 4 16 C3.87882812 15.26394531 3.75765625 14.52789062 3.6328125 13.76953125 C3.46523437 12.79371094 3.29765625 11.81789063 3.125 10.8125 C2.96257812 9.84957031 2.80015625 8.88664062 2.6328125 7.89453125 C2.01960483 5.08967396 1.14333657 2.62775253 0 0 Z " fill="#FBFAF9" transform="translate(68,28)"/>
<path d="M0 0 C0.66 0 1.32 0 2 0 C2.33 1.32 2.66 2.64 3 4 C2.01 4 1.02 4 0 4 C0 4.99 0 5.98 0 7 C-1 9.1875 -1 9.1875 -2 11 C-3.32 10.67 -4.64 10.34 -6 10 C-4.63312778 6.01328937 -2.84804907 3.11505367 0 0 Z " fill="#7CA1C0" transform="translate(20,18)"/>
<path d="M0 0 C0.66 0 1.32 0 2 0 C2 0.66 2 1.32 2 2 C2.66 2.33 3.32 2.66 4 3 C3.01 3 2.02 3 1 3 C1 3.99 1 4.98 1 6 C1.66 6 2.32 6 3 6 C2.67 6.66 2.34 7.32 2 8 C1.34 7.67 0.68 7.34 0 7 C0 7.66 0 8.32 0 9 C0.66 9 1.32 9 2 9 C1.34 10.65 0.68 12.3 0 14 C-1.32 13.67 -2.64 13.34 -4 13 C-3.52140759 11.39566191 -3.04210442 9.79153584 -2.5625 8.1875 C-2.29566406 7.29417969 -2.02882813 6.40085937 -1.75390625 5.48046875 C-1.19612127 3.64526945 -0.60655425 1.81966274 0 0 Z " fill="#819FB5" transform="translate(73,47)"/>
<path d="M0 0 C0.99 0.33 1.98 0.66 3 1 C3 2.32 3 3.64 3 5 C3.66 5 4.32 5 5 5 C4.67 5.99 4.34 6.98 4 8 C1.69 8 -0.62 8 -3 8 C-1.125 2.25 -1.125 2.25 0 0 Z " fill="#EA7E2F" transform="translate(51,38)"/>
<path d="M0 0 C0 0.99 0 1.98 0 3 C2.97 3 5.94 3 9 3 C9 3.33 9 3.66 9 4 C6.69 4 4.38 4 2 4 C2 4.66 2 5.32 2 6 C1.01 6.33 0.02 6.66 -1 7 C-1 6.01 -1 5.02 -1 4 C-3.64 4 -6.28 4 -9 4 C-8 2 -8 2 -5.0625 0.875 C-2 0 -2 0 0 0 Z " fill="#327D59" transform="translate(104,63)"/>
<path d="M0 0 C0.99 0 1.98 0 3 0 C3.33 1.98 3.66 3.96 4 6 C4.99 6.33 5.98 6.66 7 7 C4.525 8.485 4.525 8.485 2 10 C1.01 9.34 0.02 8.68 -1 8 C-0.34 7.34 0.32 6.68 1 6 C0.01 5.67 -0.98 5.34 -2 5 C-1.34 3.35 -0.68 1.7 0 0 Z " fill="#D08E57" transform="translate(50,53)"/>
<path d="M0 0 C2.97 0.495 2.97 0.495 6 1 C6.33 2.65 6.66 4.3 7 6 C4.69 6.33 2.38 6.66 0 7 C0 4.69 0 2.38 0 0 Z " fill="#FAFBF9" transform="translate(9,43)"/>
<path d="M0 0 C1.98 0.66 3.96 1.32 6 2 C5.67 3.98 5.34 5.96 5 8 C2.33333333 6.66666667 -0.33333333 5.33333333 -3 4 C-2.01 2.68 -1.02 1.36 0 0 Z " fill="#BE5E29" transform="translate(57,2)"/>
<path d="M0 0 C0.99 0 1.98 0 3 0 C3 0.66 3 1.32 3 2 C5.97 2.495 5.97 2.495 9 3 C8.67 3.99 8.34 4.98 8 6 C2.25 6.125 2.25 6.125 0 5 C0 3.35 0 1.7 0 0 Z " fill="#FAE5D4" transform="translate(98,17)"/>
<path d="M0 0 C1.65 0 3.3 0 5 0 C5 1.65 5 3.3 5 5 C3.02 5.66 1.04 6.32 -1 7 C-1.33 6.34 -1.66 5.68 -2 5 C-1.0625 2.375 -1.0625 2.375 0 0 Z " fill="#BB5C2A" transform="translate(36,0)"/>
<path d="M0 0 C0.66 0 1.32 0 2 0 C2.66 3.63 3.32 7.26 4 11 C4.66 11 5.32 11 6 11 C8.3283935 12.76957906 8.95288806 13.81583516 9.6875 16.6875 C9.790625 17.450625 9.89375 18.21375 10 19 C4.75131349 15.50087566 1.9144985 11.04665587 0.53125 4.92578125 C0.29259648 3.29166756 0.13714536 1.64574427 0 0 Z " fill="#F8F3EF" transform="translate(9,50)"/>
<path d="M0 0 C0.33 0 0.66 0 1 0 C1 4.62 1 9.24 1 14 C-1 11 -1 11 -1 8 C-2.32 7.67 -3.64 7.34 -5 7 C-5 6.01 -5 5.02 -5 4 C-3.35 4 -1.7 4 0 4 C0 2.68 0 1.36 0 0 Z " fill="#D7B2A3" transform="translate(16,36)"/>
<path d="M0 0 C1.32 0 2.64 0 4 0 C4.33 1.98 4.66 3.96 5 6 C3.02 6.66 1.04 7.32 -1 8 C-1.04241723 5.66705225 -1.04092937 3.33297433 -1 1 C-0.67 0.67 -0.34 0.34 0 0 Z " fill="#BA602B" transform="translate(82,34)"/>
<path d="M0 0 C0.33 0.66 0.66 1.32 1 2 C3.52733235 2.65555119 3.52733235 2.65555119 6 3 C5.01 3.33 4.02 3.66 3 4 C3 4.66 3 5.32 3 6 C-0.33333333 6.66666667 -3.66666667 7.33333333 -7 8 C-6.02133662 6.85373678 -5.04205413 5.70800212 -4.0625 4.5625 C-3.51722656 3.92441406 -2.97195312 3.28632812 -2.41015625 2.62890625 C-1.63204305 1.73008851 -0.84063472 0.84063472 0 0 Z " fill="#B8BFC7" transform="translate(66,59)"/>
<path d="M0 0 C0.33 0.66 0.66 1.32 1 2 C1.66 2 2.32 2 3 2 C2.67 2.66 2.34 3.32 2 4 C1.34 3.67 0.68 3.34 0 3 C-0.33 4.32 -0.66 5.64 -1 7 C-2.65 7 -4.3 7 -6 7 C-6 5.35 -6 3.7 -6 2 C-4.02 2 -2.04 2 0 2 C0 1.34 0 0.68 0 0 Z " fill="#649EC6" transform="translate(108,43)"/>
<path d="M0 0 C1.57545452 4.37626254 0.69766815 8.69769511 -0.625 13.0625 C-1.16350132 15.8447568 -0.56224588 18.25124238 0 21 C-3.00898922 17.99101078 -3.17474562 15.27005036 -3.25 11.1875 C-3.22406394 6.75891726 -2.40289808 3.80458863 0 0 Z " fill="#AB7A4F" transform="translate(26,32)"/>
<path d="M0 0 C4.875 1.875 4.875 1.875 6 3 C6.04092937 5.33297433 6.04241723 7.66705225 6 10 C3.69 8.02 1.38 6.04 -1 4 C-0.67 2.68 -0.34 1.36 0 0 Z " fill="#FBECD1" transform="translate(55,33)"/>
<path d="M0 0 C4.07201308 2.8614146 6.09821252 5.39567242 8 10 C8 10.66 8 11.32 8 12 C7.01 12 6.02 12 5 12 C4.71125 11.38125 4.4225 10.7625 4.125 10.125 C3.06279958 7.86674235 3.06279958 7.86674235 1 6 C0.34 5.01 -0.32 4.02 -1 3 C-0.67 2.01 -0.34 1.02 0 0 Z " fill="#638FAE" transform="translate(67,19)"/>
<path d="M0 0 C0.66 0.33 1.32 0.66 2 1 C2.40729228 3.32156597 2.74438677 5.6568787 3 8 C1.35 8.33 -0.3 8.66 -2 9 C-3.125 5.25 -3.125 5.25 -2 3 C-1.34 3 -0.68 3 0 3 C0 2.01 0 1.02 0 0 Z " fill="#D4936F" transform="translate(44,31)"/>
<path d="M0 0 C3.0625 1.625 3.0625 1.625 5 3 C4.34 3.66 3.68 4.32 3 5 C1.41579871 4.37720331 -0.16732531 3.75166599 -1.75 3.125 C-2.63171875 2.77695313 -3.5134375 2.42890625 -4.421875 2.0703125 C-6.6740248 1.1353291 -8.83649459 0.12219206 -11 -1 C-7.47860606 -2.76069697 -3.63748993 -1.09124698 0 0 Z " fill="#EAE9E9" transform="translate(58,9)"/>
<path d="M0 0 C-0.33 1.98 -0.66 3.96 -1 6 C-2.32 6.33 -3.64 6.66 -5 7 C-5.33 5.35 -5.66 3.7 -6 2 C-3 0 -3 0 0 0 Z " fill="#D39866" transform="translate(37,38)"/>
<path d="M0 0 C2.475 0.99 2.475 0.99 5 2 C5 6 5 6 4 8 C3.34 8 2.68 8 2 8 C2 6.68 2 5.36 2 4 C0.35 4 -1.3 4 -3 4 C-2 2 -2 2 0 0 Z " fill="#BB5F29" transform="translate(66,7)"/>
<path d="M0 0 C0 0.99 0 1.98 0 3 C-3.33333333 6 -3.33333333 6 -6 6 C-6.33 6.66 -6.66 7.32 -7 8 C-7.33 7.34 -7.66 6.68 -8 6 C-8.99 5.34 -9.98 4.68 -11 4 C-7.37 2.68 -3.74 1.36 0 0 Z " fill="#DBDBDD" transform="translate(61,66)"/>
<path d="M0 0 C0.33 0.99 0.66 1.98 1 3 C2.98 3 4.96 3 7 3 C7 3.99 7 4.98 7 6 C3.7 6 0.4 6 -3 6 C-1.125 1.125 -1.125 1.125 0 0 Z " fill="#E38438" transform="translate(29,30)"/>
<path d="M0 0 C2.31 0.66 4.62 1.32 7 2 C6.67 3.32 6.34 4.64 6 6 C5.01 5.67 4.02 5.34 3 5 C2.01 5.495 2.01 5.495 1 6 C0.01 5.01 -0.98 4.02 -2 3 C-1.34 2.01 -0.68 1.02 0 0 Z " fill="#E8A4C0" transform="translate(41,27)"/>
<path d="M0 0 C3.1875 0.875 3.1875 0.875 6 2 C6 2.99 6 3.98 6 5 C4.35 5 2.7 5 1 5 C1 4.34 1 3.68 1 3 C0.01 3 -0.98 3 -2 3 C-2 4.65 -2 6.3 -2 8 C-2.33 8 -2.66 8 -3 8 C-3.1875 5.125 -3.1875 5.125 -3 2 C-2.01 1.34 -1.02 0.68 0 0 Z " fill="#B66E45" transform="translate(100,14)"/>
<path d="M0 0 C1.65 0 3.3 0 5 0 C4.34 1.32 3.68 2.64 3 4 C3 3.01 3 2.02 3 1 C2.34 1 1.68 1 1 1 C1 1.66 1 2.32 1 3 C-5.25 6.125 -5.25 6.125 -9 5 C-8.67 4.01 -8.34 3.02 -8 2 C-2.25 0.875 -2.25 0.875 0 2 C0 1.34 0 0.68 0 0 Z " fill="#668FAC" transform="translate(38,9)"/>
<path d="M0 0 C2.0625 0.4375 2.0625 0.4375 4 1 C4 1.66 4 2.32 4 3 C4.66 3.66 5.32 4.32 6 5 C5.67 5.66 5.34 6.32 5 7 C5.99 7.33 6.98 7.66 8 8 C7.01 8.495 7.01 8.495 6 9 C5.01 8.67 4.02 8.34 3 8 C3 7.34 3 6.68 3 6 C2.01 5.67 1.02 5.34 0 5 C-0.75 3 -0.75 3 -1 1 C-0.67 0.67 -0.34 0.34 0 0 Z " fill="#739FBD" transform="translate(15,58)"/>
<path d="M0 0 C0.33 0.66 0.66 1.32 1 2 C0.06553465 4.03144641 -0.93224776 6.03533587 -2 8 C0.97 8 3.94 8 7 8 C7 8.33 7 8.66 7 9 C3.37 9.66 -0.26 10.32 -4 11 C-5 8 -5 8 -4.00390625 5.95703125 C-3.52824219 5.24933594 -3.05257812 4.54164062 -2.5625 3.8125 C-2.08941406 3.09707031 -1.61632813 2.38164063 -1.12890625 1.64453125 C-0.75636719 1.10183594 -0.38382813 0.55914062 0 0 Z " fill="#AD7C49" transform="translate(50,38)"/>
<path d="M0 0 C-1.32 2.64 -2.64 5.28 -4 8 C-5.89213369 5.61426621 -7.02391783 3.92824652 -8 1 C-5.07175348 0.02391783 -3.04386724 -0.08226668 0 0 Z " fill="#90C6C7" transform="translate(49,40)"/>
<path d="M0 0 C1.65 0 3.3 0 5 0 C5 1.65 5 3.3 5 5 C2.50907189 6.24546405 1.58919267 5.7767578 -1 5 C-0.67 3.35 -0.34 1.7 0 0 Z " fill="#F77C1A" transform="translate(31,28)"/>
<path d="M0 0 C4.98898842 1.17387963 6.98658122 4.18312389 9.86328125 8.125 C11 10 11 10 11 12 C10.34 12 9.68 12 9 12 C7.59765625 10.35546875 7.59765625 10.35546875 6.0625 8.1875 C4.18914197 5.55713284 2.2870097 3.27335591 0 1 C0 0.67 0 0.34 0 0 Z " fill="#E4CABF" transform="translate(58,19)"/>
<path d="M0 0 C0.66 0 1.32 0 2 0 C2.144375 0.598125 2.28875 1.19625 2.4375 1.8125 C2.8872439 3.56150404 3.42892341 5.28677023 4 7 C2.1875 7.625 2.1875 7.625 0 8 C-0.99 7.34 -1.98 6.68 -3 6 C-1.125 1.125 -1.125 1.125 0 0 Z " fill="#7694B1" transform="translate(63,12)"/>
<path d="M0 0 C2.92879371 0.62759865 5.36095629 1.58622659 8 3 C8 4.65 8 6.3 8 8 C3.83648025 6.61216008 2.66077051 4.45181039 0 1 C0 0.67 0 0.34 0 0 Z " fill="#EF7F25" transform="translate(27,52)"/>
<path d="M0 0 C-0.99 0.495 -0.99 0.495 -2 1 C-2 1.66 -2 2.32 -2 3 C-6.084979 3.54466387 -9.8725485 4 -14 4 C-9.89239426 0.52433361 -5.34448487 -2.0555711 0 0 Z " fill="#E8EBE5" transform="translate(40,8)"/>
<path d="M0 0 C2.64 0 5.28 0 8 0 C8.33 1.65 8.66 3.3 9 5 C8.01 5 7.02 5 6 5 C6 4.34 6 3.68 6 3 C4.35 3.33 2.7 3.66 1 4 C0.67 2.68 0.34 1.36 0 0 Z " fill="#FDEFDC" transform="translate(101,4)"/>
<path d="M0 0 C3.3 0.99 6.6 1.98 10 3 C9.34 3.66 8.68 4.32 8 5 C5.1796875 4.9765625 5.1796875 4.9765625 1.875 4.625 C0.77929688 4.51414062 -0.31640625 4.40328125 -1.4453125 4.2890625 C-2.70988281 4.14597656 -2.70988281 4.14597656 -4 4 C-2.68 2.68 -1.36 1.36 0 0 Z " fill="#A86F4D" transform="translate(41,3)"/>
<path d="M0 0 C0.66 0 1.32 0 2 0 C2.66 1.98 3.32 3.96 4 6 C0.7 6 -2.6 6 -6 6 C-3 4 -3 4 0 4 C-0.33 3.01 -0.66 2.02 -1 1 C-0.67 0.67 -0.34 0.34 0 0 Z " fill="#EFF9FA" transform="translate(48,73)"/>
<path d="M0 0 C0.66 0.33 1.32 0.66 2 1 C1.1875 3.4375 1.1875 3.4375 0 6 C-0.99 6.33 -1.98 6.66 -3 7 C-3.66 5.35 -4.32 3.7 -5 2 C-2.625 0.9375 -2.625 0.9375 0 0 Z " fill="#BD5F2B" transform="translate(29,2)"/>
<path d="M0 0 C2.9375 0.75 2.9375 0.75 6 2 C6.875 4.125 6.875 4.125 7 6 C4.69 5.67 2.38 5.34 0 5 C0 3.35 0 1.7 0 0 Z " fill="#383178" transform="translate(14,71)"/>
<path d="M0 0 C1.65 0 3.3 0 5 0 C5 1.65 5 3.3 5 5 C3.02 5 1.04 5 -1 5 C-0.67 3.35 -0.34 1.7 0 0 Z " fill="#C05D26" transform="translate(46,0)"/>
<path d="M0 0 C0.99 0.33 1.98 0.66 3 1 C3 1.66 3 2.32 3 3 C3.66 3 4.32 3 5 3 C5 5 5 5 3.625 6.5625 C2 8 2 8 0 9 C0 6.03 0 3.06 0 0 Z " fill="#02632F" transform="translate(102,71)"/>
<path d="M0 0 C1.485 0.99 1.485 0.99 3 2 C3 2.66 3 3.32 3 4 C3.99 4.33 4.98 4.66 6 5 C5.67 6.32 5.34 7.64 5 9 C4.34 9 3.68 9 3 9 C0.8125 6.1875 0.8125 6.1875 -1 3 C-0.67 2.01 -0.34 1.02 0 0 Z " fill="#F7F3EB" transform="translate(59,25)"/>
<path d="M0 0 C0.33 0.66 0.66 1.32 1 2 C2.65 2 4.3 2 6 2 C6 3.32 6 4.64 6 6 C6.99 6 7.98 6 9 6 C8.67 6.99 8.34 7.98 8 9 C6.2925002 7.71937515 4.62626404 6.38232443 3 5 C3 4.34 3 3.68 3 3 C1.35 2.67 -0.3 2.34 -2 2 C-1.34 1.34 -0.68 0.68 0 0 Z " fill="#B86C42" transform="translate(62,9)"/>
<path d="M0 0 C3.62107449 4.44404597 5.33060893 8.21434368 5 14 C4.67 12.68 4.34 11.36 4 10 C3.34 10 2.68 10 2 10 C0.39644899 6.49223216 -0.22036864 3.85645121 0 0 Z " fill="#F6F1EB" transform="translate(74,24)"/>
<path d="M0 0 C0.66 0 1.32 0 2 0 C1.67 1.65 1.34 3.3 1 5 C-0.65 5.33 -2.3 5.66 -4 6 C-4.33 4.35 -4.66 2.7 -5 1 C-2.525 1.495 -2.525 1.495 0 2 C0 1.34 0 0.68 0 0 Z " fill="#C8E0EF" transform="translate(39,10)"/>
<path d="M0 0 C1.32 0 2.64 0 4 0 C4 0.66 4 1.32 4 2 C4.99 2.33 5.98 2.66 7 3 C6.34 3 5.68 3 5 3 C5 3.66 5 4.32 5 5 C3.02 4.34 1.04 3.68 -1 3 C-0.67 2.01 -0.34 1.02 0 0 Z " fill="#BA704E" transform="translate(103,7)"/>
<path d="M0 0 C-1.39332574 3.36720387 -2.9789286 4.9859524 -6 7 C-6.66 6.67 -7.32 6.34 -8 6 C-3.375 0 -3.375 0 0 0 Z " fill="#B26530" transform="translate(73,68)"/>
<path d="M0 0 C0.99 0 1.98 0 3 0 C2.67 3.3 2.34 6.6 2 10 C1.34 10 0.68 10 0 10 C0.33 8.68 0.66 7.36 1 6 C0.34 6 -0.32 6 -1 6 C-1 4 -1 4 0 3 C0 2.01 0 1.02 0 0 Z " fill="#F0FBFC" transform="translate(74,50)"/>
<path d="M0 0 C2.31 0 4.62 0 7 0 C6.67 1.32 6.34 2.64 6 4 C3.69 3.67 1.38 3.34 -1 3 C-0.67 2.01 -0.34 1.02 0 0 Z " fill="#6B97B8" transform="translate(34,73)"/>
<path d="M0 0 C0.66 0.33 1.32 0.66 2 1 C0.60667426 4.36720387 -0.9789286 5.9859524 -4 8 C-4.66 7.67 -5.32 7.34 -6 7 C-5.67 6.01 -5.34 5.02 -5 4 C-3.68 4 -2.36 4 -1 4 C-0.67 2.68 -0.34 1.36 0 0 Z " fill="#F8F4EE" transform="translate(70,64)"/>
<path d="M0 0 C-0.1875 1.875 -0.1875 1.875 -1 4 C-3.5625 5.25 -3.5625 5.25 -6 6 C-6 5.01 -6 4.02 -6 3 C-2.66666667 0 -2.66666667 0 0 0 Z " fill="#E8B07F" transform="translate(44,51)"/>
<path d="M0 0 C1.65 0.33 3.3 0.66 5 1 C5 1.99 5 2.98 5 4 C2.69 4 0.38 4 -2 4 C-1.34 2.68 -0.68 1.36 0 0 Z " fill="#E38030" transform="translate(36,42)"/>
<path d="M0 0 C1.98 1.65 3.96 3.3 6 5 C5.67 5.66 5.34 6.32 5 7 C4.34 6.67 3.68 6.34 3 6 C3 5.67 3 5.34 3 5 C1.35 4.67 -0.3 4.34 -2 4 C-1.34 2.68 -0.68 1.36 0 0 Z " fill="#FBDED7" transform="translate(44,24)"/>
<path d="M0 0 C2.0625 0.4375 2.0625 0.4375 4 1 C4 1.66 4 2.32 4 3 C4.66 3.33 5.32 3.66 6 4 C4.68 4.99 3.36 5.98 2 7 C1.87625 6.195625 1.7525 5.39125 1.625 4.5625 C1.315625 3.2940625 1.315625 3.2940625 1 2 C0.34 1.67 -0.32 1.34 -1 1 C-0.67 0.67 -0.34 0.34 0 0 Z " fill="#F5FAFD" transform="translate(21,16)"/>
<path d="M0 0 C0.66 0.66 1.32 1.32 2 2 C-0.0072908 5.0109362 -0.83884224 5.63016497 -4 7 C-4.33 6.01 -4.66 5.02 -5 4 C-4.34 4 -3.68 4 -3 4 C-2.67 3.34 -2.34 2.68 -2 2 C-1.34 1.34 -0.68 0.68 0 0 Z " fill="#6894B7" transform="translate(60,68)"/>
<path d="M0 0 C2.64 0 5.28 0 8 0 C8.33 0.66 8.66 1.32 9 2 C4.545 2.495 4.545 2.495 0 3 C0 2.01 0 1.02 0 0 Z " fill="#FEFCF7" transform="translate(34,48)"/>
<path d="M0 0 C1.875 0.125 1.875 0.125 4 1 C5.25 4.0625 5.25 4.0625 6 7 C3.95880212 5.38405168 1.95927063 3.7143618 0 2 C0 1.34 0 0.68 0 0 Z " fill="#B26344" transform="translate(13,66)"/>
<path d="M0 0 C1.32 0 2.64 0 4 0 C3.34 1.65 2.68 3.3 2 5 C0.68 4.67 -0.64 4.34 -2 4 C-1.34 2.68 -0.68 1.36 0 0 Z " fill="#84B4CA" transform="translate(71,56)"/>
<path d="M0 0 C1.32 0.33 2.64 0.66 4 1 C4 2.65 4 4.3 4 6 C3.01 6 2.02 6 1 6 C0.67 4.02 0.34 2.04 0 0 Z " fill="#E47E29" transform="translate(53,53)"/>
<path d="M0 0 C0.66 0 1.32 0 2 0 C3.7143618 1.95927063 5.38405168 3.95880212 7 6 C6.01 6.33 5.02 6.66 4 7 C0 2.25 0 2.25 0 0 Z " fill="#CE8247" transform="translate(26,53)"/>
<path d="M0 0 C0.66 0.33 1.32 0.66 2 1 C2 2.65 2 4.3 2 6 C1.01 6.495 1.01 6.495 0 7 C-0.99 5.35 -1.98 3.7 -3 2 C-2.01 1.34 -1.02 0.68 0 0 Z " fill="#CDEFFA" transform="translate(109,36)"/>
<path d="M0 0 C1.32 0.66 2.64 1.32 4 2 C3.01 2.66 2.02 3.32 1 4 C0.7497843 7.08365871 0.7497843 7.08365871 1 10 C-1 8 -1 8 -1.1875 4.4375 C-1 1 -1 1 0 0 Z " fill="#E9A56F" transform="translate(54,31)"/>
<path d="M0 0 C0.99 0.33 1.98 0.66 3 1 C3.6875 3.0625 3.6875 3.0625 4 5 C2.02 5.33 0.04 5.66 -2 6 C-2 3 -2 3 0 0 Z " fill="#BDB6AF" transform="translate(58,21)"/>
<path d="M0 0 C0.66 0.33 1.32 0.66 2 1 C1.04882866 2.1725131 0.08882991 3.33787015 -0.875 4.5 C-1.40867187 5.1496875 -1.94234375 5.799375 -2.4921875 6.46875 C-2.98976563 6.9740625 -3.48734375 7.479375 -4 8 C-4.66 8 -5.32 8 -6 8 C-6 7.34 -6 6.68 -6 6 C-5.34 6 -4.68 6 -4 6 C-3.67 4.35 -3.34 2.7 -3 1 C-2.01 0.67 -1.02 0.34 0 0 Z " fill="#B36639" transform="translate(19,14)"/>
<path d="M0 0 C2.31 0.33 4.62 0.66 7 1 C6.01 2.485 6.01 2.485 5 4 C4.01 4 3.02 4 2 4 C2 3.34 2 2.68 2 2 C1.34 2 0.68 2 0 2 C0 1.34 0 0.68 0 0 Z " fill="#34308E" transform="translate(15,76)"/>
<path d="M0 0 C0.66 0 1.32 0 2 0 C2.33 0.66 2.66 1.32 3 2 C3.99 2.66 4.98 3.32 6 4 C4.02 4.33 2.04 4.66 0 5 C-0.5625 3.0625 -0.5625 3.0625 -1 1 C-0.67 0.67 -0.34 0.34 0 0 Z " fill="#313382" transform="translate(72,73)"/>
<path d="M0 0 C0.99 0.495 0.99 0.495 2 1 C2.99 1.33 3.98 1.66 5 2 C5 2.66 5 3.32 5 4 C4.34 4 3.68 4 3 4 C3 4.66 3 5.32 3 6 C2.01 6 1.02 6 0 6 C0 4.02 0 2.04 0 0 Z " fill="#FEF1F1" transform="translate(39,30)"/>
<path d="M0 0 C0.99 0.33 1.98 0.66 3 1 C0.69 2.65 -1.62 4.3 -4 6 C-4 5.34 -4 4.68 -4 4 C-4.66 3.67 -5.32 3.34 -6 3 C-5.195625 2.690625 -4.39125 2.38125 -3.5625 2.0625 C-1.10919595 1.23664655 -1.10919595 1.23664655 0 0 Z " fill="#E8DACC" transform="translate(31,24)"/>
<path d="M0 0 C-0.3125 1.875 -0.3125 1.875 -1 4 C-1.99 4.66 -2.98 5.32 -4 6 C-4.66 5.34 -5.32 4.68 -6 4 C-2.25 0 -2.25 0 0 0 Z " fill="#A39FA0" transform="translate(32,21)"/>
<path d="M0 0 C-2.62198774 2.15377564 -4.64404172 3.40072174 -8 4 C-8 3.01 -8 2.02 -8 1 C-5.29120665 -0.35439668 -2.99066732 -0.06501451 0 0 Z " fill="#B36844" transform="translate(30,9)"/>
<path d="M0 0 C1.32 0.66 2.64 1.32 4 2 C1.525 3.485 1.525 3.485 -1 5 C-1.99 4.34 -2.98 3.68 -4 3 C-2.68 2.01 -1.36 1.02 0 0 Z " fill="#C98751" transform="translate(53,58)"/>
<path d="M0 0 C2.5 1.375 2.5 1.375 5 3 C5 3.66 5 4.32 5 5 C3.02 5 1.04 5 -1 5 C-0.67 3.35 -0.34 1.7 0 0 Z " fill="#DD8A49" transform="translate(44,50)"/>
<path d="M0 0 C1.65 0 3.3 0 5 0 C5 0.66 5 1.32 5 2 C5.66 2.33 6.32 2.66 7 3 C4.69 3 2.38 3 0 3 C0 2.01 0 1.02 0 0 Z " fill="#D8F2F8" transform="translate(102,50)"/>
<path d="M0 0 C1.8871875 0.061875 1.8871875 0.061875 3.8125 0.125 C3.8125 0.455 3.8125 0.785 3.8125 1.125 C1.5025 1.125 -0.8075 1.125 -3.1875 1.125 C-3.1875 2.115 -3.1875 3.105 -3.1875 4.125 C-4.5075 3.465 -5.8275 2.805 -7.1875 2.125 C-4.09861478 0.06574319 -3.47814073 -0.1140374 0 0 Z " fill="#FDEFD4" transform="translate(53.1875,46.875)"/>
<path d="M0 0 C1.9375 0.75 1.9375 0.75 4 2 C4.75 4.125 4.75 4.125 5 6 C2.5 4.6875 2.5 4.6875 0 3 C0 2.01 0 1.02 0 0 Z " fill="#422C22" transform="translate(55,38)"/>
<path d="M0 0 C0.99 0 1.98 0 3 0 C3 1.32 3 2.64 3 4 C1.68 4.33 0.36 4.66 -1 5 C-0.67 3.35 -0.34 1.7 0 0 Z " fill="#BF5D29" transform="translate(80,25)"/>
</svg>
